<svg xmlns="http://www.w3.org/2000/svg" xmlns:xlink="http://www.w3.org/1999/xlink" xmlns:lucid="lucid" width="2482" height="936.67"><g transform="translate(321 35.66666666666667)" lucid:page-tab-id="0_0"><path d="M-500 0h3000v1000H-500z" fill="#fff"/><path d="M-78.42 118.55a6 6 0 0 1 6-6H814a6 6 0 0 1 6 6v588a6 6 0 0 1-6 6H-72.42a6 6 0 0 1-6-6z" stroke="#febed9" stroke-width="2" fill="#fff0f0"/><path d="M-78.42 63.9a6 6 0 0 1 6-6H74.55a6 6 0 0 1 6 6v30.65a6 6 0 0 1-6 6H-72.42a6 6 0 0 1-6-6z" fill="#febed9"/><use xlink:href="#a" transform="matrix(1,0,0,1,-70.41666666666674,68.28769684570521) translate(0 17.944444444444443)"/><use xlink:href="#b" transform="matrix(1,0,0,1,-70.41666666666674,68.28769684570521) translate(81.35802469135803 17.944444444444443)"/><a xlink:href="http://Node.js" target="_blank" transform="matrix(1,0,0,1,-70.41666666666674,68.28769684570521)"><path class="lucid-link lucid-hotspot lucid-overlay-hotspot" fill-opacity="0" d="M0 .17h75.2v26.67H0z"/></a><path d="M-62.46 138.55a6 6 0 0 1 6-6h103a6 6 0 0 1 6 6v8a14.48 14.48 0 0 1-4.24 10.25l-1.52 1.5a14.48 14.48 0 0 1-10.24 4.25h-93a6 6 0 0 1-6-6z" fill="#d7faf5"/><path d="M52.54 132.55v20l-10 10h-105" stroke="#00c2a8" stroke-width="2" fill="none"/><path d="M-62.46 138.55a6 6 0 0 1 6-6H794a6 6 0 0 1 6 6v548a6 6 0 0 1-6 6H-56.46a6 6 0 0 1-6-6z" stroke="#00c2a8" stroke-width="2" fill="none"/><use xlink:href="#c" transform="matrix(1,0,0,1,-54.45833333333326,132.55436351237188) translate(0 19.444444444444443)"/><use xlink:href="#d" transform="matrix(1,0,0,1,-54.45833333333326,132.55436351237188) translate(51.79012345679013 19.444444444444443)"/><path d="M-190 333.28c16.57 0 30 13.43 30 30v20c0 16.57-13.43 30-30 30h-80c-16.57 0-30-13.43-30-30v-20c0-16.57 13.43-30 30-30z" stroke="#282c33" stroke-width="2" fill-opacity="0"/><path d="M-300 284.6a6 6 0 0 1 6-6h60.6a6 6 0 0 1 6 6v30.68a6 6 0 0 1-6 6H-294a6 6 0 0 1-6-6z" fill="#282c33"/><use xlink:href="#e" transform="matrix(1,0,0,1,-292,289.01051508951934) translate(0 17.944444444444443)"/><path d="M1120 106a6 6 0 0 1 6-6h508a6 6 0 0 1 6 6v578a6 6 0 0 1-6 6h-508a6 6 0 0 1-6-6z" stroke="#cfe4ff" stroke-width="2" fill="#dfe3e8"/><path d="M1120 51.33a6 6 0 0 1 6-6h79.12a6 6 0 0 1 6 6V82a6 6 0 0 1-6 6H1126a6 6 0 0 1-6-6z" fill="#cfe4ff"/><use xlink:href="#f" transform="matrix(1,0,0,1,1128,55.73333333333333) translate(0 17.944444444444443)"/><path d="M1140 126a6 6 0 0 1 6-6h103a6 6 0 0 1 6 6v8a14.48 14.48 0 0 1-4.24 10.24l-1.52 1.52A14.48 14.48 0 0 1 1239 150h-93a6 6 0 0 1-6-6z" fill="#e3fae3"/><path d="M1255 120v20l-10 10h-105" stroke="#00c2a8" stroke-width="2" fill="none"/><path d="M1140 126a6 6 0 0 1 6-6h468a6 6 0 0 1 6 6v538a6 6 0 0 1-6 6h-468a6 6 0 0 1-6-6z" stroke="#00c2a8" stroke-width="2" fill="none"/><use xlink:href="#g" transform="matrix(1,0,0,1,1148,120) translate(0 19.444444444444443)"/><use xlink:href="#h" transform="matrix(1,0,0,1,1148,120) translate(49.32098765432099 19.444444444444443)"/><path d="M1100 46a6 6 0 0 1 6-6h808a6 6 0 0 1 6 6v688a6 6 0 0 1-6 6h-808a6 6 0 0 1-6-6z" stroke="#282c33" stroke-width="2" fill-opacity="0"/><path d="M1100-8.67a6 6 0 0 1 6-6h227.27a6 6 0 0 1 6 6V22a6 6 0 0 1-6 6H1106a6 6 0 0 1-6-6z" fill="#282c33"/><use xlink:href="#i" transform="matrix(1,0,0,1,1108,-4.2666666666666675) translate(0 17.944444444444443)"/><use xlink:href="#j" transform="matrix(1,0,0,1,1108,-4.2666666666666675) translate(77.65432098765432 17.944444444444443)"/><use xlink:href="#k" transform="matrix(1,0,0,1,1108,-4.2666666666666675) translate(123.33333333333333 17.944444444444443)"/><use xlink:href="#l" transform="matrix(1,0,0,1,1108,-4.2666666666666675) translate(136.85185185185185 17.944444444444443)"/><path d="M1980 352.1a6 6 0 0 1 6-6h148a6 6 0 0 1 6 6V407a6 6 0 0 1-6 6h-148a6 6 0 0 1-6-6z" stroke="#000" stroke-width="2" fill-opacity="0"/><use xlink:href="#m" transform="matrix(1,0,0,1,1988,354.112303154295) translate(14.623456790123456 17.77777777777778)"/><use xlink:href="#n" transform="matrix(1,0,0,1,1988,354.112303154295) translate(102.21604938271605 17.77777777777778)"/><use xlink:href="#o" transform="matrix(1,0,0,1,1988,354.112303154295) translate(39.28395061728395 44.44444444444444)"/><path d="M1160 226a6 6 0 0 1 6-6h148a6 6 0 0 1 6 6v59.33a6 6 0 0 1-6 6h-148a6 6 0 0 1-6-6z" stroke="#00c2a8" stroke-width="2" fill="#e3fae3"/><use xlink:href="#p" transform="matrix(1,0,0,1,1168,228.00000000000003) translate(35.641975308641975 17.77777777777778)"/><use xlink:href="#q" transform="matrix(1,0,0,1,1168,228.00000000000003) translate(15.919753086419739 44.44444444444444)"/><path d="M1160 446a6 6 0 0 1 6-6h148a6 6 0 0 1 6 6v59.33a6 6 0 0 1-6 6h-148a6 6 0 0 1-6-6z" stroke="#00c2a8" stroke-width="2" fill="#e3fae3"/><use xlink:href="#p" transform="matrix(1,0,0,1,1168,448) translate(35.641975308641975 17.77777777777778)"/><use xlink:href="#r" transform="matrix(1,0,0,1,1168,448) translate(2.956790123456784 44.44444444444444)"/><path d="M1360 146a6 6 0 0 1 6-6h228a6 6 0 0 1 6 6v488a6 6 0 0 1-6 6h-228a6 6 0 0 1-6-6z" stroke="#979ea8" stroke-width="2" fill="#ced4db"/><use xlink:href="#s" transform="matrix(1,0,0,1,1368,148) translate(59.03703703703703 17.77777777777778)"/><use xlink:href="#t" transform="matrix(1,0,0,1,1368,148) translate(113.23456790123456 17.77777777777778)"/><use xlink:href="#u" transform="matrix(1,0,0,1,1368,148) translate(125.58024691358025 17.77777777777778)"/><path d="M1400 466a6 6 0 0 1 6-6h148a6 6 0 0 1 6 6v28a6 6 0 0 1-6 6h-148a6 6 0 0 1-6-6z" stroke="#1071e5" stroke-width="2" fill-opacity="0"/><use xlink:href="#s" transform="matrix(1,0,0,1,1408,468) translate(18.388888888888886 17.77777777777778)"/><use xlink:href="#v" transform="matrix(1,0,0,1,1408,468) translate(72.58641975308642 17.77777777777778)"/><path d="M1400 352.1a6 6 0 0 1 6-6h148a6 6 0 0 1 6 6v53.35a6 6 0 0 1-6 6h-148a6 6 0 0 1-6-6z" stroke="#1071e5" stroke-width="2" fill-opacity="0"/><use xlink:href="#w" transform="matrix(1,0,0,1,1408,354.112303154295) translate(12.246913580246911 17.77777777777778)"/><use xlink:href="#x" transform="matrix(1,0,0,1,1408,354.112303154295) translate(54.03703703703703 17.77777777777778)"/><use xlink:href="#y" transform="matrix(1,0,0,1,1408,354.112303154295) translate(27.03086419753086 44.44444444444444)"/><path d="M1400 566a6 6 0 0 1 6-6h148a6 6 0 0 1 6 6v53.33a6 6 0 0 1-6 6h-148a6 6 0 0 1-6-6z" stroke="#1071e5" stroke-width="2" fill-opacity="0"/><use xlink:href="#z" transform="matrix(1,0,0,1,1408,568) translate(24.5 17.77777777777778)"/><use xlink:href="#y" transform="matrix(1,0,0,1,1408,568) translate(27.03086419753086 44.44444444444444)"/><path d="M1660 105.33a6 6 0 0 1 6-6h228a6 6 0 0 1 6 6V714a6 6 0 0 1-6 6h-228a6 6 0 0 1-6-6z" stroke="#ffd6f5" stroke-width="2" fill="#fff0fb"/><path d="M1660 50.67a6 6 0 0 1 6-6h86.65a6 6 0 0 1 6 6v30.66a6 6 0 0 1-6 6H1666a6 6 0 0 1-6-6z" fill="#ffd6f5"/><use xlink:href="#A" transform="matrix(1,0,0,1,1668,55.06666666666664) translate(0 17.944444444444443)"/><path d="M1690 476a6 6 0 0 1 6-6h153a6 6 0 0 1 6 6v8a14.48 14.48 0 0 1-4.24 10.24l-1.52 1.52A14.48 14.48 0 0 1 1839 500h-143a6 6 0 0 1-6-6z" fill="#d7faf5"/><path d="M1855 470v20l-10 10h-155" stroke="#00c2a8" stroke-width="2" fill="none"/><path d="M1690 476a6 6 0 0 1 6-6h168a6 6 0 0 1 6 6v188a6 6 0 0 1-6 6h-168a6 6 0 0 1-6-6z" stroke="#00c2a8" stroke-width="2" fill="none"/><use xlink:href="#B" transform="matrix(1,0,0,1,1698,470) translate(0 18.6)"/><use xlink:href="#C" transform="matrix(1,0,0,1,1698,470) translate(62.900000000000006 18.6)"/><path d="M1680 166a6 6 0 0 1 6-6h103a6 6 0 0 1 6 6v8a14.48 14.48 0 0 1-4.24 10.24l-1.52 1.52A14.48 14.48 0 0 1 1779 190h-93a6 6 0 0 1-6-6z" fill="#d7faf5"/><path d="M1795 160v20l-10 10h-105" stroke="#00c2a8" stroke-width="2" fill="none"/><path d="M1680 166a6 6 0 0 1 6-6h188a6 6 0 0 1 6 6v128a6 6 0 0 1-6 6h-188a6 6 0 0 1-6-6z" stroke="#00c2a8" stroke-width="2" fill="none"/><use xlink:href="#D" transform="matrix(1,0,0,1,1688,160) translate(0 19.444444444444443)"/><path d="M1390 215.83a6 6 0 0 1 6-6h168a6 6 0 0 1 6 6v58a6 6 0 0 1-6 6h-168a6 6 0 0 1-6-6z" stroke="#1071e5" stroke-width="2" fill-opacity="0"/><use xlink:href="#w" transform="matrix(1,0,0,1,1398,217.8333316092548) translate(5.024691358024683 17.77777777777778)"/><use xlink:href="#E" transform="matrix(1,0,0,1,1398,217.8333316092548) translate(46.8148148148148 17.77777777777778)"/><use xlink:href="#F" transform="matrix(1,0,0,1,1398,217.8333316092548) translate(0.6419753086419746 44.44444444444444)"/><use xlink:href="#G" transform="matrix(1,0,0,1,1398,217.8333316092548) translate(43.851851851851855 44.44444444444444)"/><use xlink:href="#H" transform="matrix(1,0,0,1,1398,217.8333316092548) translate(135.08641975308643 44.44444444444444)"/><path d="M-100 47.33a6 6 0 0 1 6-6h928a6 6 0 0 1 6 6v688a6 6 0 0 1-6 6H-94a6 6 0 0 1-6-6z" stroke="#282c33" stroke-width="2" fill-opacity="0"/><path d="M-100-7.33a6 6 0 0 1 6-6h229.62a6 6 0 0 1 6 6v30.66a6 6 0 0 1-6 6H-94a6 6 0 0 1-6-6z" fill="#282c33"/><use xlink:href="#i" transform="matrix(1,0,0,1,-92,-2.933333333333183) translate(0 17.944444444444443)"/><use xlink:href="#j" transform="matrix(1,0,0,1,-92,-2.933333333333183) translate(77.65432098765432 17.944444444444443)"/><use xlink:href="#k" transform="matrix(1,0,0,1,-92,-2.933333333333183) translate(123.33333333333333 17.944444444444443)"/><use xlink:href="#I" transform="matrix(1,0,0,1,-92,-2.933333333333183) translate(136.85185185185185 17.944444444444443)"/><path d="M327.5 786a6 6 0 0 1 6-6h168a6 6 0 0 1 6 6v88a6 6 0 0 1-6 6h-168a6 6 0 0 1-6-6z" stroke="#000" stroke-width="2" fill-opacity="0"/><use xlink:href="#J" transform="matrix(1,0,0,1,335.5,788) translate(14.891975308642003 30.222222222222214)"/><use xlink:href="#K" transform="matrix(1,0,0,1,335.5,788) translate(16.04629629629632 75.55555555555554)"/><path d="M-40 298.67a6 6 0 0 1 6-6h157.33a6 6 0 0 1 6 6v268a6 6 0 0 1-6 6H-34a6 6 0 0 1-6-6z" stroke="#e3fae3" stroke-width="2" fill="#d7faf5"/><path d="M-40 244a6 6 0 0 1 6-6h66.96a6 6 0 0 1 6 6v30.67a6 6 0 0 1-6 6H-34a6 6 0 0 1-6-6z" fill="#e3fae3"/><use xlink:href="#L" transform="matrix(1,0,0,1,-32,248.40000000000032) translate(0 17.944444444444443)"/><path d="M-25.33 317.45a6 6 0 0 1 6-6h128a6 6 0 0 1 6 6v29.22a6 6 0 0 1-6 6h-128a6 6 0 0 1-6-6z" stroke="#008573" stroke-width="2" fill-opacity="0"/><use xlink:href="#M" transform="matrix(1,0,0,1,-17.333333333333485,319.4456364876287) translate(22.52469135802469 17.77777777777778)"/><path d="M-25.33 378.06a6 6 0 0 1 6-6h128a6 6 0 0 1 6 6v29.22a6 6 0 0 1-6 6h-128a6 6 0 0 1-6-6z" stroke="#008573" stroke-width="2" fill-opacity="0"/><use xlink:href="#N" transform="matrix(1,0,0,1,-17.333333333333485,380.0561515771478) translate(32.98765432098766 17.77777777777778)"/><path d="M-25.33 438.67a6 6 0 0 1 6-6h128a6 6 0 0 1 6 6v29.22a6 6 0 0 1-6 6h-128a6 6 0 0 1-6-6z" stroke="#008573" stroke-width="2" fill-opacity="0"/><use xlink:href="#O" transform="matrix(1,0,0,1,-17.333333333333485,440.666666666667) translate(25.641975308641975 17.77777777777778)"/><path d="M220 207.33a6 6 0 0 1 6-6h383a6 6 0 0 1 6 6v444.34a6 6 0 0 1-6 6H226a6 6 0 0 1-6-6z" stroke="#008573" stroke-width="2" fill-opacity="0"/><path d="M220 152.67a6 6 0 0 1 6-6h129.8a6 6 0 0 1 6 6v30.66a6 6 0 0 1-6 6H226a6 6 0 0 1-6-6z" fill="#008573"/><use xlink:href="#P" transform="matrix(1,0,0,1,228.00000000000003,157.06666666666683) translate(0 17.944444444444443)"/><path d="M-25.33 498.67a6 6 0 0 1 6-6h128a6 6 0 0 1 6 6v29.22a6 6 0 0 1-6 6h-128a6 6 0 0 1-6-6z" stroke="#008573" stroke-width="2" fill-opacity="0"/><use xlink:href="#Q" transform="matrix(1,0,0,1,-17.333333333333485,500.66666666666697) translate(33.04938271604938 17.77777777777778)"/><path d="M657.5 328.78a6 6 0 0 1 6-6h88a6 6 0 0 1 6 6v8a14.48 14.48 0 0 1-4.24 10.24l-1.52 1.52a14.48 14.48 0 0 1-10.24 4.24h-78a6 6 0 0 1-6-6z" fill="#f4d9ff"/><path d="M757.5 322.78v20l-10 10h-90" stroke="#eec4ff" stroke-width="2" fill="none"/><path d="M657.5 328.78a6 6 0 0 1 6-6h98a6 6 0 0 1 6 6v68a6 6 0 0 1-6 6h-98a6 6 0 0 1-6-6z" stroke="#eec4ff" stroke-width="2" fill="none"/><use xlink:href="#R" transform="matrix(1,0,0,1,665.5,322.77896982096183) translate(0 19.444444444444443)"/><path d="M-161 395.27h1.04m4.2 0h2.08m4.2 0h2.1m4.2 0h2.08m4.2 0h2.1m4.2 0h2.08m4.2 0h2.1m4.2 0h2.08m4.2 0h2.1m4.2 0h1.03l.5-.04.3-.08m2.23-2.22l.08-.32.04-.48.04-.5.08-.3m2.22-2.23l.32-.1.5-.03h.96m3.88 0h1.94m3.88 0h1.94m3.88 0h1.94m3.87 0h1.93m3.88 0h1.95m3.88 0h1.94m3.88 0h.97" stroke="#3a414a" fill="none"/><path d="M-161 395.75h-.72l.42-.95h.3z" stroke="#3a414a" stroke-width=".05" fill="#3a414a"/><path d="M-42.62 388.97l-14.26 4.64v-9.27z" stroke="#3a414a" fill="#3a414a"/><path d="M-41.5 350.52h-.98m-3.94 0h-1.96m-3.94 0h-1.96m-3.94 0h-1.97m-3.92 0h-1.97m-3.92 0H-72m-3.92 0h-1.97m-3.92 0h-1.97m-3.92 0h-1.97m-3.92 0h-1.97m-3.92 0h-.98l-.3-.02-.3-.07-.26-.12-.26-.14-.22-.2-.2-.22-.15-.25-.1-.3-.07-.27-.03-.3-.02-.3-.07-.28-.1-.28-.16-.25-.2-.23-.22-.2-.25-.15-.27-.12-.3-.07-.3-.02h-1m-4.12 0h-2.05m-4.1 0h-2.06m-4.1 0h-2.06m-4.1 0h-2.05m-4.1 0h-2.06m-4.12 0h-2.05m-4.1 0h-1.04" stroke="#3a414a" fill="none"/><path d="M-41 351h-.5v-.95h.5z" stroke="#3a414a" stroke-width=".05" fill="#3a414a"/><path d="M-162.17 346.74l14.26-4.63v9.27z" stroke="#3a414a" fill="#3a414a"/><path d="M1002 347h2.17m8.66 0h4.34m8.66 0h4.34m8.66 0h4.34m8.66 0h2.17l.94-.07.6-.15m4.24-4.23l.15-.6.07-.95v-2.05m0-8.2v-4.1m0-8.2v-4.08m0-8.2v-4.1m0-8.2v-4.08m0-8.2v-4.1m0-8.2v-4.1m0-8.2v-4.1m0-8.2v-2.03l.07-.94.15-.6m4.23-4.24l.6-.16.95-.07h2.07m8.28 0h4.14m8.26 0h4.14m8.28 0h4.14m8.28 0h4.13m8.28 0h4.15m8.28 0h2.07" stroke="#008a0e" stroke-width="2" fill="none"/><path d="M1002.03 347.98H1001v-1.96h1.03z" stroke="#008a0e" stroke-width=".05" fill="#008a0e"/><path d="M1155.76 236.67l-14.26 4.63v-9.27z" stroke="#008a0e" stroke-width="2" fill="#008a0e"/><path d="M1158 269.33h-2.07m-8.26 0h-4.14m-8.26 0h-4.14m-8.26 0h-4.14m-8.26 0h-4.14m-8.26 0H1096l-.94.08-.6.15m-4.24 4.23l-.15.62-.07.93v1.96m0 7.8v3.9m0 7.8v3.9m0 7.8v3.9m0 7.8v3.92m0 7.8v3.9m0 7.8v3.92m0 7.8v3.9m0 7.8V369l-.07.94-.15.6m-4.23 4.24l-.6.15-.95.07h-2.15m-8.6 0h-4.3m-8.6 0h-4.3m-8.6 0h-4.3m-8.6 0h-4.3m-8.6 0h-2.15" stroke="#3a414a" stroke-width="2" fill="none"/><path d="M1159 270.3h-1.03v-1.94h1.03z" stroke="#3a414a" stroke-width=".05" fill="#3a414a"/><path d="M1004.24 375l14.26-4.63v9.26z" stroke="#3a414a" stroke-width="2" fill="#3a414a"/><path d="M1002 347h2.17m8.66 0h4.34m8.66 0h4.34m8.66 0h4.34m8.66 0h2.17l.94.07.6.15m4.24 4.23l.15.6.07.95v2.02m0 8.08v4.05m0 8.08v4.04m0 8.08v4.05m0 8.08v4.04m0 8.08v4.05m0 8.08v4.04m0 8.08v4.05m0 8.08V450l.07.94.15.6m4.23 4.24l.6.15.95.07h2.07m8.28 0h4.14m8.26 0h4.14m8.28 0h4.14m8.28 0h4.13m8.28 0h4.15m8.28 0h2.07" stroke="#008a0e" stroke-width="2" fill="none"/><path d="M1002.03 347.98H1001v-1.96h1.03z" stroke="#008a0e" stroke-width=".05" fill="#008a0e"/><path d="M1155.76 456l-14.26 4.63v-9.26z" stroke="#008a0e" stroke-width="2" fill="#008a0e"/><path d="M1158 492h-2.07m-8.26 0h-4.14m-8.26 0h-4.14m-8.26 0h-4.14m-8.26 0h-4.14m-8.26 0H1096l-.94-.07-.6-.15m-4.24-4.23l-.15-.6-.07-.95v-1.94m0-7.78v-3.9m0-7.77v-3.88m0-7.78v-3.88m0-7.78v-3.9m0-7.77v-3.88m0-7.78v-3.88m0-7.78v-3.9m0-7.77v-3.88m0-7.78V381l-.07-.94-.15-.6m-4.23-4.24l-.6-.15-.95-.07h-2.15m-8.6 0h-4.3m-8.6 0h-4.3m-8.6 0h-4.3m-8.6 0h-4.3m-8.6 0h-2.15" stroke="#3a414a" stroke-width="2" fill="none"/><path d="M1159 492.98h-1.03v-1.96h1.03z" stroke="#3a414a" stroke-width=".05" fill="#3a414a"/><path d="M1004.24 375l14.26-4.63v9.26z" stroke="#3a414a" stroke-width="2" fill="#3a414a"/><path d="M1322 465h58.57" stroke="#3a414a" stroke-width="2" fill="none"/><path d="M1322.03 465.98H1321v-1.95h1.03z" stroke="#3a414a" stroke-width=".05" fill="#3a414a"/><path d="M1395.84 465l-14.27 4.64v-9.27z" stroke="#3a414a" stroke-width="2" fill="#3a414a"/><path d="M1398 492h-58.5" stroke="#3a414a" stroke-width="2" fill="none"/><path d="M1399 492.98h-1.03v-1.96h1.03z" stroke="#3a414a" stroke-width=".05" fill="#3a414a"/><path d="M1324.24 492l14.26-4.63v9.26z" stroke="#3a414a" stroke-width="2" fill="#3a414a"/><path d="M1322 235.35h48.5" stroke="#3a414a" stroke-width="2" fill="none"/><path d="M1322.03 236.33H1321v-1.95h1.03z" stroke="#3a414a" stroke-width=".05" fill="#3a414a"/><path d="M1385.76 235.35L1371.5 240v-9.28z" stroke="#3a414a" stroke-width="2" fill="#3a414a"/><path d="M1388 255.67h-48.5" stroke="#3a414a" stroke-width="2" fill="none"/><path d="M1389 256.64h-1.03v-1.95h1.03z" stroke="#3a414a" stroke-width=".05" fill="#3a414a"/><path d="M1324.24 255.67l14.26-4.64v9.27z" stroke="#3a414a" stroke-width="2" fill="#3a414a"/><path d="M1439.33 458v-27.05" stroke="#3a414a" stroke-width="2" fill="none"/><path d="M1440.3 459h-1.94v-1.03h1.95z" stroke="#3a414a" stroke-width=".05" fill="#3a414a"/><path d="M1439.33 415.68l4.64 14.27h-9.27z" stroke="#3a414a" stroke-width="2" fill="#3a414a"/><path d="M1520.67 413.45v27.05" stroke="#3a414a" stroke-width="2" fill="none"/><path d="M1521.64 413.47h-1.95v-1.02h1.94z" stroke="#3a414a" stroke-width=".05" fill="#3a414a"/><path d="M1520.67 455.76l-4.64-14.26h9.27z" stroke="#3a414a" stroke-width="2" fill="#3a414a"/><path d="M1443 502v38.5" stroke="#3a414a" stroke-width="2" fill="none"/><path d="M1443.97 502.03h-1.94V501h1.94z" stroke="#3a414a" stroke-width=".05" fill="#3a414a"/><path d="M1443 555.76l-4.63-14.26h9.27z" stroke="#3a414a" stroke-width="2" fill="#3a414a"/><path d="M1521 558v-38.5" stroke="#3a414a" stroke-width="2" fill="none"/><path d="M1521.97 559h-1.94v-1.03h1.94z" stroke="#3a414a" stroke-width=".05" fill="#3a414a"/><path d="M1521 504.24l4.63 14.26h-9.27z" stroke="#3a414a" stroke-width="2" fill="#3a414a"/><path d="M1562 582.53h2.02m8.1 0h4.04m8.1 0h4.04m8.1 0h4.03m8.1 0h4.04m8.1 0h4.03m8.1 0h4.04m8.1 0h4.04m8.1 0h4.03m8.1 0h4.05m8.1 0h4.04m8.07 0h2.03" stroke="#3a414a" stroke-width="2" fill="none"/><path d="M1562.03 583.5H1561v-1.94h1.03z" stroke="#3a414a" stroke-width=".05" fill="#3a414a"/><path d="M1710.76 582.53l-14.26 4.64v-9.27z" stroke="#3a414a" stroke-width="2" fill="#3a414a"/><path d="M1713 612.92h-2.02m-8.1 0h-4.04m-8.1 0h-4.04m-8.1 0h-4.03m-8.1 0h-4.04m-8.1 0h-4.03m-8.1 0h-4.04m-8.1 0h-4.04m-8.1 0h-4.03m-8.1 0h-4.05m-8.1 0h-4.04m-8.07 0h-2.03" stroke="#3a414a" stroke-width="2" fill="none"/><path d="M1714 613.9h-1.03v-1.96h1.03z" stroke="#3a414a" stroke-width=".05" fill="#3a414a"/><path d="M1564.24 612.92l14.26-4.64v9.27z" stroke="#3a414a" stroke-width="2" fill="#3a414a"/><path d="M1855 643.6c0 7.03-31.34 12.73-70 12.73s-70-5.7-70-12.73V541.73c0-7.03 31.34-12.73 70-12.73s70 5.7 70 12.73z" stroke="#00c2a8" stroke-width="2" fill="#d7faf5"/><path d="M1855 541.73c0 7.04-31.34 12.74-70 12.74s-70-5.7-70-12.74" stroke="#00c2a8" stroke-width="2" fill="none"/><use xlink:href="#S" transform="matrix(1,0,0,1,1720,559.4666666666668) translate(5.185185185185176 49.40277777777778)"/><path d="M1678 230h-14a6 6 0 0 0-6 6v72.27a6 6 0 0 1-6 6h-166a6 6 0 0 0-6 6v6.34" stroke="#3a414a" stroke-width="2" fill="none"/><path d="M1679 230.97h-1.03v-1.94h1.03z" stroke="#3a414a" stroke-width=".05" fill="#3a414a"/><path d="M1480 341.88l-4.63-14.27h9.27z" stroke="#3a414a" stroke-width="2" fill="#3a414a"/><path d="M1562 367.57h2m8.06 0h4.03m8.04 0h4.02m8.05 0h4.04m8.05 0h4.02m8.05 0h4.02m8.04 0h4.03m8.05 0h4.02m8.05 0h4.02m8.05 0h4.02m8.04 0h4.03m8.05 0h4.03m8.05 0h4.02m8.05 0h4.03m8.05 0h4.02m8.05 0h4.03m8.05 0h4.02m8.05 0h4.03m8.05 0h4.03m8.05 0h4.02m8.05 0h4.03m8.05 0h4.02m8.05 0h4.03m8.05 0h4.02m8.05 0h4.03m8.05 0h4.02m8.06 0h4.02m8.05 0h4.03m8.05 0h4.03m8.05 0h4.03m8.06 0h4.02m8.05 0h4.03m8.05 0h4.03m8.05 0h2.02" stroke="#3a414a" stroke-width="2" fill="none"/><path d="M1562.03 368.55H1561v-1.95h1.03z" stroke="#3a414a" stroke-width=".05" fill="#3a414a"/><path d="M1975.76 367.57l-14.26 4.64v-9.26z" stroke="#3a414a" stroke-width="2" fill="#3a414a"/><path d="M1579.5 390.37h2m7.92 0h3.97m7.93 0h3.97m7.94 0h3.96m7.94 0h3.97m7.95 0h3.97m7.93 0h3.97m7.94 0h3.97m7.94 0h3.96m7.94 0h3.97m7.94 0h3.97m7.93 0h3.97m7.94 0h3.96m7.94 0h3.97m7.93 0h3.97m7.94 0h3.98m7.94 0h4.02m8.16 0h4.07m8.16 0h4.08m8.17 0h4.07m8.16 0h4.08m8.16 0h4.07m8.17 0h4.08m8.16 0h4.1m8.14 0h4.08m8.16 0h4.08m8.15 0h4.1m8.15 0h4.08m8.15 0h4.08m8.16 0h4.08m8.15 0h4.08m8.16 0h4.07m8.15 0h4.08m8.16 0h2.04" stroke="#3a414a" stroke-width="2" fill="none"/><path d="M1564.24 390.37l14.26-4.64V395z" stroke="#3a414a" stroke-width="2" fill="#3a414a"/><path d="M1979 391.34h-1.03v-1.95h1.03z" stroke="#3a414a" stroke-width=".05" fill="#3a414a"/><path d="M2060 344.1V236a6 6 0 0 0-6-6h-154.5" stroke="#3a414a" stroke-width="2" fill="none"/><path d="M2060.97 345.1h-1.94v-1h1.94z" stroke="#3a414a" stroke-width=".05" fill="#3a414a"/><path d="M1884.24 230l14.26-4.63v9.26z" stroke="#3a414a" stroke-width="2" fill="#3a414a"/><path d="M1700 206.17a6 6 0 0 1 6-6h148a6 6 0 0 1 6 6v67.66a6 6 0 0 1-6 6h-148a6 6 0 0 1-6-6z" stroke="#000" stroke-opacity="0" stroke-width="2" fill="#fff" fill-opacity="0"/><use xlink:href="#m" transform="matrix(1,0,0,1,1705,205.16666839074514) translate(17.623456790123456 17.77777777777778)"/><use xlink:href="#T" transform="matrix(1,0,0,1,1705,205.16666839074514) translate(105.21604938271605 17.77777777777778)"/><use xlink:href="#U" transform="matrix(1,0,0,1,1705,205.16666839074514) translate(24.50617283950617 44.44444444444444)"/><use xlink:href="#V" transform="matrix(1,0,0,1,1705,205.16666839074514) translate(33.73456790123457 71.11111111111111)"/><path d="M867.5 317.45a6 6 0 0 1 6-6H994a6 6 0 0 1 6 6v88a6 6 0 0 1-6 6H873.5a6 6 0 0 1-6-6z" stroke="#00c2a8" stroke-width="2" fill="#d7faf5"/><use xlink:href="#W" transform="matrix(1,0,0,1,872.5,316.44563648762835) translate(32.7962962962963 37.46527777777778)"/><use xlink:href="#X" transform="matrix(1,0,0,1,872.5,316.44563648762835) translate(20.172839506172842 64.13194444444446)"/><path d="M769.5 336h2m8 0h4m8 0h4m8 0h4m8 0h3.7m6.77 0h3.4m6.77 0h3.4m6.76 0h1.7" stroke="#3a414a" stroke-width="2" fill="none"/><path d="M769.53 336.98h-1.03v-1.96h1.03z" stroke="#3a414a" stroke-width=".05" fill="#3a414a"/><path d="M863.26 336L849 340.63v-9.26z" stroke="#3a414a" stroke-width="2" fill="#3a414a"/><path d="M865.5 392h-1.87m-7.48 0h-3.73m-7.48 0h-3.74m-7.47 0H830m-7.5 0h-3.73m-7.47 0h-3.74m-7.47 0h-3.75m-7.48 0H787" stroke="#3a414a" stroke-width="2" fill="none"/><path d="M866.5 392.98h-1.03v-1.96h1.03z" stroke="#3a414a" stroke-width=".05" fill="#3a414a"/><path d="M771.74 392l14.26-4.63v9.26z" stroke="#3a414a" stroke-width="2" fill="#3a414a"/><path d="M260 223a6 6 0 0 1 6-6h117.67a6 6 0 0 1 6 6v56.67a6 6 0 0 1-6 6H266a6 6 0 0 1-6-6z" stroke="#008573" stroke-width="2" fill="#d7faf5"/><use xlink:href="#Y" transform="matrix(1,0,0,1,272,229.00000000000017) translate(17.876543209876544 17.77777777777778)"/><use xlink:href="#Z" transform="matrix(1,0,0,1,272,229.00000000000017) translate(14.820987654320987 44.44444444444444)"/><path d="M116.17 332.06H154a6 6 0 0 1 6 6v48.6a6 6 0 0 1-6 6h-21.95" stroke="#008573" fill="none"/><path d="M116.18 332.53h-.5v-.95h.5z" stroke="#008573" stroke-width=".05" fill="#008573"/><path d="M117.28 392.67l14.27-4.64v9.27z" stroke="#008573" fill="#008573"/><path d="M116.17 332.06H154a6 6 0 0 1 6 6v109.22a6 6 0 0 1-6 6h-21.95" stroke="#008573" fill="none"/><path d="M116.18 332.53h-.5v-.95h.5z" stroke="#008573" stroke-width=".05" fill="#008573"/><path d="M117.28 453.28l14.27-4.64v9.27z" stroke="#008573" fill="#008573"/><path d="M116.17 332.06H154a6 6 0 0 0 6-6v-68.73a6 6 0 0 1 6-6h76.62" stroke="#008573" fill="none"/><path d="M116.18 332.53h-.5v-.95h.5z" stroke="#008573" stroke-width=".05" fill="#008573"/><path d="M257.38 251.33l-14.26 4.64v-9.27z" stroke="#008573" fill="#008573"/><path d="M260 578.67a6 6 0 0 1 6-6h117.67a6 6 0 0 1 6 6v56.66a6 6 0 0 1-6 6H266a6 6 0 0 1-6-6z" stroke="#008573" stroke-width="2" fill="#d7faf5"/><use xlink:href="#aa" transform="matrix(1,0,0,1,272,584.6666666666669) translate(5.6234567901234485 26.21527777777778)"/><path d="M440 223a6 6 0 0 1 6-6h117.67a6 6 0 0 1 6 6v56.67a6 6 0 0 1-6 6H446a6 6 0 0 1-6-6z" stroke="#008573" stroke-width="2" fill="#d7faf5"/><use xlink:href="#ab" transform="matrix(1,0,0,1,452,229.00000000000017) translate(17.876543209876544 26.21527777777778)"/><path d="M242.5 334.45a6 6 0 0 1 6-6h117.67a6 6 0 0 1 6 6v56.66a6 6 0 0 1-6 6H248.5a6 6 0 0 1-6-6z" stroke="#008573" stroke-width="2" fill="#d7faf5"/><use xlink:href="#ac" transform="matrix(1,0,0,1,254.49999999999997,340.4456364876285) translate(-9.839506172839513 26.944444444444443)"/><path d="M440 333a6 6 0 0 1 6-6h117.67a6 6 0 0 1 6 6v56.67a6 6 0 0 1-6 6H446a6 6 0 0 1-6-6z" stroke="#008573" stroke-width="2" fill="#d7faf5"/><use xlink:href="#ad" transform="matrix(1,0,0,1,452,339.00000000000017) translate(-3.080246913580261 26.944444444444443)"/><path d="M391.17 251.33h31.45" stroke="#008573" fill="none"/><path d="M391.18 251.8h-.5v-.94h.5z" stroke="#008573" stroke-width=".05" fill="#008573"/><path d="M437.38 251.33l-14.26 4.64v-9.27z" stroke="#008573" fill="#008573"/><path d="M504.83 287.17v22.45" stroke="#008573" fill="none"/><path d="M505.3 287.18h-.94v-.5h.95z" stroke="#008573" stroke-width=".05" fill="#008573"/><path d="M504.83 324.38l-4.63-14.26h9.27z" stroke="#008573" fill="#008573"/><path d="M504.83 287.17v13.9a6 6 0 0 1-6 6h-187.5a4 4 0 0 0-4 4" stroke="#008573" fill="none"/><path d="M505.3 287.18h-.94v-.5h.95z" stroke="#008573" stroke-width=".05" fill="#008573"/><path d="M307.33 325.83l-4.63-14.27h9.27z" stroke="#008573" fill="#008573"/><path d="M504.83 397.17v33.5a6 6 0 0 1-6 6H176a6 6 0 0 0-6 6v64.6a6 6 0 0 1-6 6h-31.95" stroke="#008573" fill="none"/><path d="M505.3 397.18h-.94v-.5h.95z" stroke="#008573" stroke-width=".05" fill="#008573"/><path d="M117.28 513.28l14.27-4.64v9.27z" stroke="#008573" fill="#008573"/><path d="M44.67 535.4V601a6 6 0 0 0 6 6h191.95" stroke="#008573" fill="none"/><path d="M45.14 535.4h-.95v-.5h.94z" stroke="#008573" stroke-width=".05" fill="#008573"/><path d="M257.38 607l-14.26 4.63v-9.26z" stroke="#008573" fill="#008573"/><path d="M440 578.67a6 6 0 0 1 6-6h117.67a6 6 0 0 1 6 6v56.66a6 6 0 0 1-6 6H446a6 6 0 0 1-6-6z" stroke="#008573" stroke-width="2" fill="#d7faf5"/><use xlink:href="#ae" transform="matrix(1,0,0,1,452,584.666666666667) translate(0.5925925925926023 26.21527777777778)"/><path d="M260 468.55a6 6 0 0 1 6-6h117.67a6 6 0 0 1 6 6v56.67a6 6 0 0 1-6 6H266a6 6 0 0 1-6-6z" stroke="#008573" stroke-width="2" fill="#d7faf5"/><use xlink:href="#af" transform="matrix(1,0,0,1,272,474.55436351237176) translate(-11.043209876543216 26.944444444444443)"/><path d="M44.67 535.4V601a6 6 0 0 0 6 6H234a6 6 0 0 0 6-6V499.5a2.62 2.62 0 0 1 2.62-2.6" stroke="#008573" fill="none"/><path d="M45.14 535.4h-.95v-.5h.94z" stroke="#008573" stroke-width=".05" fill="#008573"/><path d="M257.38 496.9l-14.26 4.62v-9.27z" stroke="#008573" fill="#008573"/><path d="M577.54 607H706.5a6 6 0 0 0 6-6V420.16" stroke="#e08fff" fill="none"/><path d="M571.65 607l12.9-7.64v15.28zM712.5 405.4l4.63 14.26h-9.26z" stroke="#e08fff" fill="#e08fff"/><path d="M440 467.33a6 6 0 0 1 6-6h117.67a6 6 0 0 1 6 6V524a6 6 0 0 1-6 6H446a6 6 0 0 1-6-6z" stroke="#008573" stroke-width="2" fill="#d7faf5"/><g><use xlink:href="#ag" transform="matrix(1,0,0,1,452,473.3333333333335) translate(28.987654320987655 26.21527777777778)"/></g><path d="M44.67 535.4V601a6 6 0 0 0 6 6H234a6 6 0 0 0 6-6v-43.67a6 6 0 0 1 6-6h168a6 6 0 0 0 6-6v-47.05a2.62 2.62 0 0 1 2.62-2.6" stroke="#008573" fill="none"/><path d="M45.14 535.4h-.95v-.5h.94z" stroke="#008573" stroke-width=".05" fill="#008573"/><path d="M437.38 495.67l-14.26 4.63v-9.27z" stroke="#008573" fill="#008573"/><path d="M577.54 361.33h35.32a.72.72 0 0 1 .72.73.72.72 0 0 0 .73.72h25.82" stroke="#e08fff" fill="none"/><path d="M571.65 361.33l12.9-7.63v15.27zM654.88 362.78l-14.26 4.63v-9.26z" stroke="#e08fff" fill="#e08fff"/><path d="M373.67 362.78h48.95" stroke="#008573" fill="none"/><path d="M373.68 363.25h-.5v-.95h.5z" stroke="#008573" stroke-width=".05" fill="#008573"/><path d="M437.38 362.78l-14.26 4.63v-9.26z" stroke="#008573" fill="#008573"/><path d="M324.83 651.33v1.88m0 7.57v3.78m0 7.56v1.9l.08.94.15.6m4.23 4.24l.62.15.93.07h1.92m7.7 0h3.83m7.68 0h3.84m7.68 0h3.84m7.7 0h3.83m7.68 0h3.84m7.7 0h3.83m7.68 0h1.92l.94.07.6.15m4.24 4.23l.15.6.07.95v2.07m0 8.28v4.14m0 8.26v4.14m0 8.28v4.14m0 8.28v4.13m0 8.28v4.15m0 8.28v2.07" stroke="#3a414a" stroke-width="2" fill="none"/><path d="M324.83 644.3l7.64 12.9H317.2zM417.5 775.76l-4.63-14.26h9.26z" stroke="#3a414a" stroke-width="2" fill="#3a414a"/><path d="M324.83 541.2v4.13l.08.94.15.6m4.23 4.24l.62.16.93.07h1.92m7.7 0h3.83m7.68 0h3.84m7.68 0h3.84m7.7 0h3.83m7.68 0h3.84m7.7 0h3.83m7.68 0h1.92l.94.08.6.15m4.24 4.23l.15.62.07.93v2m0 7.96v3.98m0 7.96v4m0 7.95v3.98m0 7.97v3.98m0 7.97v3.98m0 7.97v3.98m0 7.97v3.98m0 7.97v3.98m0 7.97v3.98m0 7.97v3.98m0 7.97v4m0 7.95v4m0 7.95v4m0 7.95v4m0 7.96v4m0 7.95v4m0 7.96v2" stroke="#3a414a" stroke-width="2" fill="none"/><path d="M324.83 534.18l7.64 12.92H317.2zM417.5 775.76l-4.63-14.26h9.26z" stroke="#3a414a" stroke-width="2" fill="#3a414a"/><path d="M397.54 607h34.6" stroke="#1071e5" fill="none"/><path d="M391.65 607l12.9-7.64v15.28zM438.02 607l-12.9 7.64v-15.28z" stroke="#1071e5" fill="#1071e5"/><path d="M504.83 537.87v26.92" stroke="#1071e5" fill="none"/><path d="M504.83 531.98l7.64 12.9H497.2zM504.83 570.68l-7.63-12.9h15.27z" stroke="#1071e5" fill="#1071e5"/><defs><path fill="#3a414a" d="M190 0L58-211 59 0H30v-248h39L202-35l-2-213h31V0h-41" id="ah"/><path fill="#3a414a" d="M100-194c62-1 85 37 85 99 1 63-27 99-86 99S16-35 15-95c0-66 28-99 85-99zM99-20c44 1 53-31 53-75 0-43-8-75-51-75s-53 32-53 75 10 74 51 75" id="ai"/><path fill="#3a414a" d="M85-194c31 0 48 13 60 33l-1-100h32l1 261h-30c-2-10 0-23-3-31C134-8 116 4 85 4 32 4 16-35 15-94c0-66 23-100 70-100zm9 24c-40 0-46 34-46 75 0 40 6 74 45 74 42 0 51-32 51-76 0-42-9-74-50-73" id="aj"/><path fill="#3a414a" d="M100-194c63 0 86 42 84 106H49c0 40 14 67 53 68 26 1 43-12 49-29l28 8c-11 28-37 45-77 45C44 4 14-33 15-96c1-61 26-98 85-98zm52 81c6-60-76-77-97-28-3 7-6 17-6 28h103" id="ak"/><path fill="#3a414a" d="M33 0v-38h34V0H33" id="al"/><path fill="#3a414a" d="M24-231v-30h32v30H24zM-9 49c24 4 33-6 33-30v-209h32V24c2 40-23 58-65 49V49" id="am"/><path fill="#3a414a" d="M135-143c-3-34-86-38-87 0 15 53 115 12 119 90S17 21 10-45l28-5c4 36 97 45 98 0-10-56-113-15-118-90-4-57 82-63 122-42 12 7 21 19 24 35" id="an"/><g id="a"><use transform="matrix(0.06172839506172839,0,0,0.06172839506172839,0,0)" xlink:href="#ah"/><use transform="matrix(0.06172839506172839,0,0,0.06172839506172839,15.987654320987653,0)" xlink:href="#ai"/><use transform="matrix(0.06172839506172839,0,0,0.06172839506172839,28.333333333333332,0)" xlink:href="#aj"/><use transform="matrix(0.06172839506172839,0,0,0.06172839506172839,40.67901234567901,0)" xlink:href="#ak"/><use transform="matrix(0.06172839506172839,0,0,0.06172839506172839,53.02469135802469,0)" xlink:href="#al"/><use transform="matrix(0.06172839506172839,0,0,0.06172839506172839,59.19753086419753,0)" xlink:href="#am"/><use transform="matrix(0.06172839506172839,0,0,0.06172839506172839,64.07407407407408,0)" xlink:href="#an"/><path fill="#8080ff" d="M-1.1 1.54h77.4v1.63H-1.1z"/></g><path fill="#3a414a" d="M114-163C36-179 61-72 57 0H25l-1-190h30c1 12-1 29 2 39 6-27 23-49 58-41v29" id="ao"/><path fill="#3a414a" d="M108 0H70L1-190h34L89-25l56-165h34" id="ap"/><g id="b"><use transform="matrix(0.06172839506172839,0,0,0.06172839506172839,0,0)" xlink:href="#an"/><use transform="matrix(0.06172839506172839,0,0,0.06172839506172839,11.11111111111111,0)" xlink:href="#ak"/><use transform="matrix(0.06172839506172839,0,0,0.06172839506172839,23.45679012345679,0)" xlink:href="#ao"/><use transform="matrix(0.06172839506172839,0,0,0.06172839506172839,30.80246913580247,0)" xlink:href="#ap"/><use transform="matrix(0.06172839506172839,0,0,0.06172839506172839,41.91358024691358,0)" xlink:href="#ak"/><use transform="matrix(0.06172839506172839,0,0,0.06172839506172839,54.25925925925926,0)" xlink:href="#ao"/></g><path fill="#3a414a" d="M141 0L90-78 38 0H4l68-98-65-92h35l48 74 47-74h35l-64 92 68 98h-35" id="aq"/><path fill="#3a414a" d="M59-47c-2 24 18 29 38 22v24C64 9 27 4 27-40v-127H5v-23h24l9-43h21v43h35v23H59v120" id="ar"/><g id="c"><use transform="matrix(0.06172839506172839,0,0,0.06172839506172839,0,0)" xlink:href="#ah"/><use transform="matrix(0.06172839506172839,0,0,0.06172839506172839,15.987654320987653,0)" xlink:href="#ak"/><use transform="matrix(0.06172839506172839,0,0,0.06172839506172839,28.333333333333332,0)" xlink:href="#aq"/><use transform="matrix(0.06172839506172839,0,0,0.06172839506172839,39.44444444444444,0)" xlink:href="#ar"/></g><path fill="#3a414a" d="M205 0l-28-72H64L36 0H1l101-248h38L239 0h-34zm-38-99l-47-123c-12 45-31 82-46 123h93" id="as"/><path fill="#3a414a" d="M115-194c55 1 70 41 70 98S169 2 115 4C84 4 66-9 55-30l1 105H24l-1-265h31l2 30c10-21 28-34 59-34zm-8 174c40 0 45-34 45-75s-6-73-45-74c-42 0-51 32-51 76 0 43 10 73 51 73" id="at"/><g id="d"><use transform="matrix(0.06172839506172839,0,0,0.06172839506172839,0,0)" xlink:href="#as"/><use transform="matrix(0.06172839506172839,0,0,0.06172839506172839,14.814814814814813,0)" xlink:href="#at"/><use transform="matrix(0.06172839506172839,0,0,0.06172839506172839,27.160493827160494,0)" xlink:href="#at"/></g><path fill="#979ea8" d="M212-179c-10-28-35-45-73-45-59 0-87 40-87 99 0 60 29 101 89 101 43 0 62-24 78-52l27 14C228-24 195 4 139 4 59 4 22-46 18-125c-6-104 99-153 187-111 19 9 31 26 39 46" id="au"/><path fill="#979ea8" d="M24 0v-261h32V0H24" id="av"/><path fill="#979ea8" d="M24-231v-30h32v30H24zM24 0v-190h32V0H24" id="aw"/><path fill="#979ea8" d="M100-194c63 0 86 42 84 106H49c0 40 14 67 53 68 26 1 43-12 49-29l28 8c-11 28-37 45-77 45C44 4 14-33 15-96c1-61 26-98 85-98zm52 81c6-60-76-77-97-28-3 7-6 17-6 28h103" id="ax"/><path fill="#979ea8" d="M117-194c89-4 53 116 60 194h-32v-121c0-31-8-49-39-48C34-167 62-67 57 0H25l-1-190h30c1 10-1 24 2 32 11-22 29-35 61-36" id="ay"/><path fill="#979ea8" d="M59-47c-2 24 18 29 38 22v24C64 9 27 4 27-40v-127H5v-23h24l9-43h21v43h35v23H59v120" id="az"/><g id="e"><use transform="matrix(0.06172839506172839,0,0,0.06172839506172839,0,0)" xlink:href="#au"/><use transform="matrix(0.06172839506172839,0,0,0.06172839506172839,15.987654320987653,0)" xlink:href="#av"/><use transform="matrix(0.06172839506172839,0,0,0.06172839506172839,20.864197530864196,0)" xlink:href="#aw"/><use transform="matrix(0.06172839506172839,0,0,0.06172839506172839,25.74074074074074,0)" xlink:href="#ax"/><use transform="matrix(0.06172839506172839,0,0,0.06172839506172839,38.08641975308642,0)" xlink:href="#ay"/><use transform="matrix(0.06172839506172839,0,0,0.06172839506172839,50.432098765432094,0)" xlink:href="#az"/></g><path d="M232-93c-1 65-40 97-104 97C67 4 28-28 28-90v-158h33c8 89-33 224 67 224 102 0 64-133 71-224h33v155" id="aA"/><path d="M108 0H70L1-190h34L89-25l56-165h34" id="aB"/><path d="M24-231v-30h32v30H24zM24 0v-190h32V0H24" id="aC"/><path d="M96-169c-40 0-48 33-48 73s9 75 48 75c24 0 41-14 43-38l32 2c-6 37-31 61-74 61-59 0-76-41-82-99-10-93 101-131 147-64 4 7 5 14 7 22l-32 3c-4-21-16-35-41-35" id="aD"/><path d="M100-194c62-1 85 37 85 99 1 63-27 99-86 99S16-35 15-95c0-66 28-99 85-99zM99-20c44 1 53-31 53-75 0-43-8-75-51-75s-53 32-53 75 10 74 51 75" id="aE"/><path d="M114-163C36-179 61-72 57 0H25l-1-190h30c1 12-1 29 2 39 6-27 23-49 58-41v29" id="aF"/><path d="M117-194c89-4 53 116 60 194h-32v-121c0-31-8-49-39-48C34-167 62-67 57 0H25l-1-190h30c1 10-1 24 2 32 11-22 29-35 61-36" id="aG"/><g id="f"><use transform="matrix(0.06172839506172839,0,0,0.06172839506172839,0,0)" xlink:href="#aA"/><use transform="matrix(0.06172839506172839,0,0,0.06172839506172839,15.987654320987653,0)" xlink:href="#aB"/><use transform="matrix(0.06172839506172839,0,0,0.06172839506172839,27.098765432098766,0)" xlink:href="#aC"/><use transform="matrix(0.06172839506172839,0,0,0.06172839506172839,31.975308641975307,0)" xlink:href="#aD"/><use transform="matrix(0.06172839506172839,0,0,0.06172839506172839,43.08641975308642,0)" xlink:href="#aE"/><use transform="matrix(0.06172839506172839,0,0,0.06172839506172839,55.432098765432094,0)" xlink:href="#aF"/><use transform="matrix(0.06172839506172839,0,0,0.06172839506172839,62.77777777777777,0)" xlink:href="#aG"/></g><path fill="#3a414a" d="M63-220v92h138v28H63V0H30v-248h175v28H63" id="aH"/><path fill="#3a414a" d="M141-36C126-15 110 5 73 4 37 3 15-17 15-53c-1-64 63-63 125-63 3-35-9-54-41-54-24 1-41 7-42 31l-33-3c5-37 33-52 76-52 45 0 72 20 72 64v82c-1 20 7 32 28 27v20c-31 9-61-2-59-35zM48-53c0 20 12 33 32 33 41-3 63-29 60-74-43 2-92-5-92 41" id="aI"/><g id="g"><use transform="matrix(0.06172839506172839,0,0,0.06172839506172839,0,0)" xlink:href="#aH"/><use transform="matrix(0.06172839506172839,0,0,0.06172839506172839,13.518518518518517,0)" xlink:href="#aI"/><use transform="matrix(0.06172839506172839,0,0,0.06172839506172839,25.864197530864196,0)" xlink:href="#an"/><use transform="matrix(0.06172839506172839,0,0,0.06172839506172839,36.9753086419753,0)" xlink:href="#ar"/></g><path fill="#3a414a" d="M30-248c87 1 191-15 191 75 0 78-77 80-158 76V0H30v-248zm33 125c57 0 124 11 124-50 0-59-68-47-124-48v98" id="aJ"/><path fill="#3a414a" d="M33 0v-248h34V0H33" id="aK"/><g id="h"><use transform="matrix(0.06172839506172839,0,0,0.06172839506172839,0,0)" xlink:href="#as"/><use transform="matrix(0.06172839506172839,0,0,0.06172839506172839,14.814814814814813,0)" xlink:href="#aJ"/><use transform="matrix(0.06172839506172839,0,0,0.06172839506172839,29.629629629629626,0)" xlink:href="#aK"/></g><path fill="#ced4db" d="M197 0v-115H63V0H30v-248h33v105h134v-105h34V0h-34" id="aL"/><path fill="#ced4db" d="M100-194c63 0 86 42 84 106H49c0 40 14 67 53 68 26 1 43-12 49-29l28 8c-11 28-37 45-77 45C44 4 14-33 15-96c1-61 26-98 85-98zm52 81c6-60-76-77-97-28-3 7-6 17-6 28h103" id="aM"/><path fill="#ced4db" d="M114-163C36-179 61-72 57 0H25l-1-190h30c1 12-1 29 2 39 6-27 23-49 58-41v29" id="aN"/><path fill="#ced4db" d="M100-194c62-1 85 37 85 99 1 63-27 99-86 99S16-35 15-95c0-66 28-99 85-99zM99-20c44 1 53-31 53-75 0-43-8-75-51-75s-53 32-53 75 10 74 51 75" id="aO"/><path fill="#ced4db" d="M143 0L79-87 56-68V0H24v-261h32v163l83-92h37l-77 82L181 0h-38" id="aP"/><path fill="#ced4db" d="M84 4C-5 8 30-112 23-190h32v120c0 31 7 50 39 49 72-2 45-101 50-169h31l1 190h-30c-1-10 1-25-2-33-11 22-28 36-60 37" id="aQ"/><g id="i"><use transform="matrix(0.06172839506172839,0,0,0.06172839506172839,0,0)" xlink:href="#aL"/><use transform="matrix(0.06172839506172839,0,0,0.06172839506172839,15.987654320987653,0)" xlink:href="#aM"/><use transform="matrix(0.06172839506172839,0,0,0.06172839506172839,28.333333333333332,0)" xlink:href="#aN"/><use transform="matrix(0.06172839506172839,0,0,0.06172839506172839,35.67901234567901,0)" xlink:href="#aO"/><use transform="matrix(0.06172839506172839,0,0,0.06172839506172839,48.02469135802469,0)" xlink:href="#aP"/><use transform="matrix(0.06172839506172839,0,0,0.06172839506172839,59.1358024691358,0)" xlink:href="#aQ"/></g><path fill="#ced4db" d="M205 0l-28-72H64L36 0H1l101-248h38L239 0h-34zm-38-99l-47-123c-12 45-31 82-46 123h93" id="aR"/><path fill="#ced4db" d="M115-194c55 1 70 41 70 98S169 2 115 4C84 4 66-9 55-30l1 105H24l-1-265h31l2 30c10-21 28-34 59-34zm-8 174c40 0 45-34 45-75s-6-73-45-74c-42 0-51 32-51 76 0 43 10 73 51 73" id="aS"/><g id="j"><use transform="matrix(0.06172839506172839,0,0,0.06172839506172839,0,0)" xlink:href="#aR"/><use transform="matrix(0.06172839506172839,0,0,0.06172839506172839,14.814814814814813,0)" xlink:href="#aS"/><use transform="matrix(0.06172839506172839,0,0,0.06172839506172839,27.160493827160494,0)" xlink:href="#aS"/></g><path fill="#ced4db" d="M16-82v-28h88v28H16" id="aT"/><use transform="matrix(0.06172839506172839,0,0,0.06172839506172839,0,0)" xlink:href="#aT" id="k"/><path fill="#ced4db" d="M160-131c35 5 61 23 61 61C221 17 115-2 30 0v-248c76 3 177-17 177 60 0 33-19 50-47 57zm-97-11c50-1 110 9 110-42 0-47-63-36-110-37v79zm0 115c55-2 124 14 124-45 0-56-70-42-124-44v89" id="aU"/><path fill="#ced4db" d="M141-36C126-15 110 5 73 4 37 3 15-17 15-53c-1-64 63-63 125-63 3-35-9-54-41-54-24 1-41 7-42 31l-33-3c5-37 33-52 76-52 45 0 72 20 72 64v82c-1 20 7 32 28 27v20c-31 9-61-2-59-35zM48-53c0 20 12 33 32 33 41-3 63-29 60-74-43 2-92-5-92 41" id="aV"/><path fill="#ced4db" d="M96-169c-40 0-48 33-48 73s9 75 48 75c24 0 41-14 43-38l32 2c-6 37-31 61-74 61-59 0-76-41-82-99-10-93 101-131 147-64 4 7 5 14 7 22l-32 3c-4-21-16-35-41-35" id="aW"/><path fill="#ced4db" d="M117-194c89-4 53 116 60 194h-32v-121c0-31-8-49-39-48C34-167 62-67 57 0H25l-1-190h30c1 10-1 24 2 32 11-22 29-35 61-36" id="aX"/><path fill="#ced4db" d="M85-194c31 0 48 13 60 33l-1-100h32l1 261h-30c-2-10 0-23-3-31C134-8 116 4 85 4 32 4 16-35 15-94c0-66 23-100 70-100zm9 24c-40 0-46 34-46 75 0 40 6 74 45 74 42 0 51-32 51-76 0-42-9-74-50-73" id="aY"/><g id="l"><use transform="matrix(0.06172839506172839,0,0,0.06172839506172839,0,0)" xlink:href="#aU"/><use transform="matrix(0.06172839506172839,0,0,0.06172839506172839,14.814814814814813,0)" xlink:href="#aV"/><use transform="matrix(0.06172839506172839,0,0,0.06172839506172839,27.160493827160494,0)" xlink:href="#aW"/><use transform="matrix(0.06172839506172839,0,0,0.06172839506172839,38.27160493827161,0)" xlink:href="#aP"/><use transform="matrix(0.06172839506172839,0,0,0.06172839506172839,49.38271604938272,0)" xlink:href="#aM"/><use transform="matrix(0.06172839506172839,0,0,0.06172839506172839,61.7283950617284,0)" xlink:href="#aX"/><use transform="matrix(0.06172839506172839,0,0,0.06172839506172839,74.07407407407408,0)" xlink:href="#aY"/></g><path fill="#3a414a" d="M210-169c-67 3-38 105-44 169h-31v-121c0-29-5-50-35-48C34-165 62-65 56 0H25l-1-190h30c1 10-1 24 2 32 10-44 99-50 107 0 11-21 27-35 58-36 85-2 47 119 55 194h-31v-121c0-29-5-49-35-48" id="aZ"/><path fill="#3a414a" d="M9 0v-24l116-142H16v-24h144v24L44-24h123V0H9" id="ba"/><path fill="#3a414a" d="M117-194c89-4 53 116 60 194h-32v-121c0-31-8-49-39-48C34-167 62-67 57 0H25l-1-190h30c1 10-1 24 2 32 11-22 29-35 61-36" id="bb"/><g id="m"><use transform="matrix(0.06172839506172839,0,0,0.06172839506172839,0,0)" xlink:href="#as"/><use transform="matrix(0.06172839506172839,0,0,0.06172839506172839,14.814814814814813,0)" xlink:href="#aZ"/><use transform="matrix(0.06172839506172839,0,0,0.06172839506172839,33.2716049382716,0)" xlink:href="#aI"/><use transform="matrix(0.06172839506172839,0,0,0.06172839506172839,45.61728395061728,0)" xlink:href="#ba"/><use transform="matrix(0.06172839506172839,0,0,0.06172839506172839,56.72839506172839,0)" xlink:href="#ai"/><use transform="matrix(0.06172839506172839,0,0,0.06172839506172839,69.07407407407408,0)" xlink:href="#bb"/></g><path fill="#3a414a" d="M185-189c-5-48-123-54-124 2 14 75 158 14 163 119 3 78-121 87-175 55-17-10-28-26-33-46l33-7c5 56 141 63 141-1 0-78-155-14-162-118-5-82 145-84 179-34 5 7 8 16 11 25" id="bc"/><path fill="#3a414a" d="M126-127c33 6 58 20 58 59 0 88-139 92-164 29-3-8-5-16-6-25l32-3c6 27 21 44 54 44 32 0 52-15 52-46 0-38-36-46-79-43v-28c39 1 72-4 72-42 0-27-17-43-46-43-28 0-47 15-49 41l-32-3c6-42 35-63 81-64 48-1 79 21 79 65 0 36-21 52-52 59" id="bd"/><g id="n"><use transform="matrix(0.06172839506172839,0,0,0.06172839506172839,0,0)" xlink:href="#bc"/><use transform="matrix(0.06172839506172839,0,0,0.06172839506172839,14.814814814814813,0)" xlink:href="#bd"/></g><path fill="#3a414a" d="M115-194c53 0 69 39 70 98 0 66-23 100-70 100C84 3 66-7 56-30L54 0H23l1-261h32v101c10-23 28-34 59-34zm-8 174c40 0 45-34 45-75 0-40-5-75-45-74-42 0-51 32-51 76 0 43 10 73 51 73" id="be"/><path fill="#3a414a" d="M84 4C-5 8 30-112 23-190h32v120c0 31 7 50 39 49 72-2 45-101 50-169h31l1 190h-30c-1-10 1-25-2-33-11 22-28 36-60 37" id="bf"/><path fill="#3a414a" d="M96-169c-40 0-48 33-48 73s9 75 48 75c24 0 41-14 43-38l32 2c-6 37-31 61-74 61-59 0-76-41-82-99-10-93 101-131 147-64 4 7 5 14 7 22l-32 3c-4-21-16-35-41-35" id="bg"/><path fill="#3a414a" d="M143 0L79-87 56-68V0H24v-261h32v163l83-92h37l-77 82L181 0h-38" id="bh"/><g id="o"><use transform="matrix(0.06172839506172839,0,0,0.06172839506172839,0,0)" xlink:href="#be"/><use transform="matrix(0.06172839506172839,0,0,0.06172839506172839,12.345679012345679,0)" xlink:href="#bf"/><use transform="matrix(0.06172839506172839,0,0,0.06172839506172839,24.691358024691358,0)" xlink:href="#bg"/><use transform="matrix(0.06172839506172839,0,0,0.06172839506172839,35.80246913580247,0)" xlink:href="#bh"/><use transform="matrix(0.06172839506172839,0,0,0.06172839506172839,46.91358024691358,0)" xlink:href="#ak"/><use transform="matrix(0.06172839506172839,0,0,0.06172839506172839,59.25925925925926,0)" xlink:href="#ar"/></g><path fill="#3a414a" d="M233-177c-1 41-23 64-60 70L243 0h-38l-65-103H63V0H30v-248c88 3 205-21 203 71zM63-129c60-2 137 13 137-47 0-61-80-42-137-45v92" id="bi"/><path fill="#3a414a" d="M33-154v-36h34v36H33zM33 0v-36h34V0H33" id="bj"/><g id="p"><use transform="matrix(0.06172839506172839,0,0,0.06172839506172839,0,0)" xlink:href="#bi"/><use transform="matrix(0.06172839506172839,0,0,0.06172839506172839,15.987654320987653,0)" xlink:href="#ai"/><use transform="matrix(0.06172839506172839,0,0,0.06172839506172839,28.333333333333332,0)" xlink:href="#bf"/><use transform="matrix(0.06172839506172839,0,0,0.06172839506172839,40.67901234567901,0)" xlink:href="#ar"/><use transform="matrix(0.06172839506172839,0,0,0.06172839506172839,46.851851851851855,0)" xlink:href="#ak"/><use transform="matrix(0.06172839506172839,0,0,0.06172839506172839,59.19753086419753,0)" xlink:href="#ao"/><use transform="matrix(0.06172839506172839,0,0,0.06172839506172839,66.54320987654322,0)" xlink:href="#bj"/></g><path fill="#3a414a" d="M212-179c-10-28-35-45-73-45-59 0-87 40-87 99 0 60 29 101 89 101 43 0 62-24 78-52l27 14C228-24 195 4 139 4 59 4 22-46 18-125c-6-104 99-153 187-111 19 9 31 26 39 46" id="bk"/><path fill="#3a414a" d="M24-231v-30h32v30H24zM24 0v-190h32V0H24" id="bl"/><g id="q"><use transform="matrix(0.06172839506172839,0,0,0.06172839506172839,0,0)" xlink:href="#bk"/><use transform="matrix(0.06172839506172839,0,0,0.06172839506172839,15.987654320987653,0)" xlink:href="#ai"/><use transform="matrix(0.06172839506172839,0,0,0.06172839506172839,28.333333333333332,0)" xlink:href="#bb"/><use transform="matrix(0.06172839506172839,0,0,0.06172839506172839,40.67901234567901,0)" xlink:href="#ap"/><use transform="matrix(0.06172839506172839,0,0,0.06172839506172839,51.79012345679013,0)" xlink:href="#ak"/><use transform="matrix(0.06172839506172839,0,0,0.06172839506172839,64.13580246913581,0)" xlink:href="#ao"/><use transform="matrix(0.06172839506172839,0,0,0.06172839506172839,71.4814814814815,0)" xlink:href="#an"/><use transform="matrix(0.06172839506172839,0,0,0.06172839506172839,82.59259259259261,0)" xlink:href="#bl"/><use transform="matrix(0.06172839506172839,0,0,0.06172839506172839,87.46913580246915,0)" xlink:href="#ai"/><use transform="matrix(0.06172839506172839,0,0,0.06172839506172839,99.81481481481484,0)" xlink:href="#bb"/></g><path fill="#3a414a" d="M0 4l72-265h28L28 4H0" id="bm"/><path fill="#3a414a" d="M177-190C167-65 218 103 67 71c-23-6-38-20-44-43l32-5c15 47 100 32 89-28v-30C133-14 115 1 83 1 29 1 15-40 15-95c0-56 16-97 71-98 29-1 48 16 59 35 1-10 0-23 2-32h30zM94-22c36 0 50-32 50-73 0-42-14-75-50-75-39 0-46 34-46 75s6 73 46 73" id="bn"/><path fill="#3a414a" d="M101-234c-31-9-42 10-38 44h38v23H63V0H32v-167H5v-23h27c-7-52 17-82 69-68v24" id="bo"/><g id="r"><use transform="matrix(0.06172839506172839,0,0,0.06172839506172839,0,0)" xlink:href="#aJ"/><use transform="matrix(0.06172839506172839,0,0,0.06172839506172839,14.814814814814813,0)" xlink:href="#ao"/><use transform="matrix(0.06172839506172839,0,0,0.06172839506172839,22.160493827160494,0)" xlink:href="#ai"/><use transform="matrix(0.06172839506172839,0,0,0.06172839506172839,34.50617283950617,0)" xlink:href="#am"/><use transform="matrix(0.06172839506172839,0,0,0.06172839506172839,39.382716049382715,0)" xlink:href="#ak"/><use transform="matrix(0.06172839506172839,0,0,0.06172839506172839,51.72839506172839,0)" xlink:href="#bg"/><use transform="matrix(0.06172839506172839,0,0,0.06172839506172839,62.839506172839506,0)" xlink:href="#ar"/><use transform="matrix(0.06172839506172839,0,0,0.06172839506172839,69.01234567901234,0)" xlink:href="#bm"/><use transform="matrix(0.06172839506172839,0,0,0.06172839506172839,75.18518518518518,0)" xlink:href="#bn"/><use transform="matrix(0.06172839506172839,0,0,0.06172839506172839,87.53086419753086,0)" xlink:href="#ak"/><use transform="matrix(0.06172839506172839,0,0,0.06172839506172839,99.87654320987654,0)" xlink:href="#ai"/><use transform="matrix(0.06172839506172839,0,0,0.06172839506172839,112.22222222222223,0)" xlink:href="#ao"/><use transform="matrix(0.06172839506172839,0,0,0.06172839506172839,119.56790123456791,0)" xlink:href="#ak"/><use transform="matrix(0.06172839506172839,0,0,0.06172839506172839,131.9135802469136,0)" xlink:href="#bo"/></g><g id="s"><use transform="matrix(0.06172839506172839,0,0,0.06172839506172839,0,0)" xlink:href="#bk"/><use transform="matrix(0.06172839506172839,0,0,0.06172839506172839,15.987654320987653,0)" xlink:href="#ai"/><use transform="matrix(0.06172839506172839,0,0,0.06172839506172839,28.333333333333332,0)" xlink:href="#ao"/><use transform="matrix(0.06172839506172839,0,0,0.06172839506172839,35.67901234567901,0)" xlink:href="#ak"/></g><use transform="matrix(0.06172839506172839,0,0,0.06172839506172839,0,0)" xlink:href="#bm" id="t"/><path fill="#3a414a" d="M24 0v-261h32V0H24" id="bp"/><g id="u"><use transform="matrix(0.06172839506172839,0,0,0.06172839506172839,0,0)" xlink:href="#bf"/><use transform="matrix(0.06172839506172839,0,0,0.06172839506172839,12.345679012345679,0)" xlink:href="#ar"/><use transform="matrix(0.06172839506172839,0,0,0.06172839506172839,18.51851851851852,0)" xlink:href="#bl"/><use transform="matrix(0.06172839506172839,0,0,0.06172839506172839,23.395061728395063,0)" xlink:href="#bp"/><use transform="matrix(0.06172839506172839,0,0,0.06172839506172839,28.271604938271608,0)" xlink:href="#an"/></g><path fill="#3a414a" d="M30 0v-248h33v221h125V0H30" id="bq"/><g id="v"><use transform="matrix(0.06172839506172839,0,0,0.06172839506172839,0,0)" xlink:href="#bq"/><use transform="matrix(0.06172839506172839,0,0,0.06172839506172839,12.345679012345679,0)" xlink:href="#ai"/><use transform="matrix(0.06172839506172839,0,0,0.06172839506172839,24.691358024691358,0)" xlink:href="#bn"/><use transform="matrix(0.06172839506172839,0,0,0.06172839506172839,37.03703703703704,0)" xlink:href="#bl"/><use transform="matrix(0.06172839506172839,0,0,0.06172839506172839,41.91358024691358,0)" xlink:href="#bg"/></g><g id="w"><use transform="matrix(0.06172839506172839,0,0,0.06172839506172839,0,0)" xlink:href="#aH"/><use transform="matrix(0.06172839506172839,0,0,0.06172839506172839,13.518518518518517,0)" xlink:href="#bl"/><use transform="matrix(0.06172839506172839,0,0,0.06172839506172839,18.39506172839506,0)" xlink:href="#bp"/><use transform="matrix(0.06172839506172839,0,0,0.06172839506172839,23.2716049382716,0)" xlink:href="#ak"/></g><g id="x"><use transform="matrix(0.06172839506172839,0,0,0.06172839506172839,0,0)" xlink:href="#bc"/><use transform="matrix(0.06172839506172839,0,0,0.06172839506172839,14.814814814814813,0)" xlink:href="#ar"/><use transform="matrix(0.06172839506172839,0,0,0.06172839506172839,20.98765432098765,0)" xlink:href="#ai"/><use transform="matrix(0.06172839506172839,0,0,0.06172839506172839,33.33333333333333,0)" xlink:href="#ao"/><use transform="matrix(0.06172839506172839,0,0,0.06172839506172839,40.679012345679006,0)" xlink:href="#aI"/><use transform="matrix(0.06172839506172839,0,0,0.06172839506172839,53.02469135802468,0)" xlink:href="#bn"/><use transform="matrix(0.06172839506172839,0,0,0.06172839506172839,65.37037037037037,0)" xlink:href="#ak"/></g><path fill="#3a414a" d="M197 0v-115H63V0H30v-248h33v105h134v-105h34V0h-34" id="br"/><g id="y"><use transform="matrix(0.06172839506172839,0,0,0.06172839506172839,0,0)" xlink:href="#br"/><use transform="matrix(0.06172839506172839,0,0,0.06172839506172839,15.987654320987653,0)" xlink:href="#aI"/><use transform="matrix(0.06172839506172839,0,0,0.06172839506172839,28.333333333333332,0)" xlink:href="#bb"/><use transform="matrix(0.06172839506172839,0,0,0.06172839506172839,40.67901234567901,0)" xlink:href="#aj"/><use transform="matrix(0.06172839506172839,0,0,0.06172839506172839,53.02469135802469,0)" xlink:href="#ak"/><use transform="matrix(0.06172839506172839,0,0,0.06172839506172839,65.37037037037037,0)" xlink:href="#bp"/><use transform="matrix(0.06172839506172839,0,0,0.06172839506172839,70.24691358024691,0)" xlink:href="#ak"/><use transform="matrix(0.06172839506172839,0,0,0.06172839506172839,82.5925925925926,0)" xlink:href="#ao"/></g><path fill="#3a414a" d="M30-248c118-7 216 8 213 122C240-48 200 0 122 0H30v-248zM63-27c89 8 146-16 146-99s-60-101-146-95v194" id="bs"/><g id="z"><use transform="matrix(0.06172839506172839,0,0,0.06172839506172839,0,0)" xlink:href="#bs"/><use transform="matrix(0.06172839506172839,0,0,0.06172839506172839,15.987654320987653,0)" xlink:href="#aI"/><use transform="matrix(0.06172839506172839,0,0,0.06172839506172839,28.333333333333332,0)" xlink:href="#ar"/><use transform="matrix(0.06172839506172839,0,0,0.06172839506172839,34.50617283950617,0)" xlink:href="#aI"/><use transform="matrix(0.06172839506172839,0,0,0.06172839506172839,46.85185185185185,0)" xlink:href="#be"/><use transform="matrix(0.06172839506172839,0,0,0.06172839506172839,59.197530864197525,0)" xlink:href="#aI"/><use transform="matrix(0.06172839506172839,0,0,0.06172839506172839,71.5432098765432,0)" xlink:href="#an"/><use transform="matrix(0.06172839506172839,0,0,0.06172839506172839,82.65432098765432,0)" xlink:href="#ak"/></g><path d="M205 0l-28-72H64L36 0H1l101-248h38L239 0h-34zm-38-99l-47-123c-12 45-31 82-46 123h93" id="bt"/><path d="M85-194c31 0 48 13 60 33l-1-100h32l1 261h-30c-2-10 0-23-3-31C134-8 116 4 85 4 32 4 16-35 15-94c0-66 23-100 70-100zm9 24c-40 0-46 34-46 75 0 40 6 74 45 74 42 0 51-32 51-76 0-42-9-74-50-73" id="bu"/><path d="M16-82v-28h88v28H16" id="bv"/><path d="M135-143c-3-34-86-38-87 0 15 53 115 12 119 90S17 21 10-45l28-5c4 36 97 45 98 0-10-56-113-15-118-90-4-57 82-63 122-42 12 7 21 19 24 35" id="bw"/><g id="A"><use transform="matrix(0.06172839506172839,0,0,0.06172839506172839,0,0)" xlink:href="#bt"/><use transform="matrix(0.06172839506172839,0,0,0.06172839506172839,14.814814814814813,0)" xlink:href="#bu"/><use transform="matrix(0.06172839506172839,0,0,0.06172839506172839,27.160493827160494,0)" xlink:href="#bu"/><use transform="matrix(0.06172839506172839,0,0,0.06172839506172839,39.50617283950617,0)" xlink:href="#bv"/><use transform="matrix(0.06172839506172839,0,0,0.06172839506172839,46.85185185185185,0)" xlink:href="#aE"/><use transform="matrix(0.06172839506172839,0,0,0.06172839506172839,59.197530864197525,0)" xlink:href="#aG"/><use transform="matrix(0.06172839506172839,0,0,0.06172839506172839,71.5432098765432,0)" xlink:href="#bw"/></g><path d="M197 0v-115H63V0H30v-248h33v105h134v-105h34V0h-34" id="bx"/><path d="M100-194c63 0 86 42 84 106H49c0 40 14 67 53 68 26 1 43-12 49-29l28 8c-11 28-37 45-77 45C44 4 14-33 15-96c1-61 26-98 85-98zm52 81c6-60-76-77-97-28-3 7-6 17-6 28h103" id="by"/><path d="M143 0L79-87 56-68V0H24v-261h32v163l83-92h37l-77 82L181 0h-38" id="bz"/><path d="M84 4C-5 8 30-112 23-190h32v120c0 31 7 50 39 49 72-2 45-101 50-169h31l1 190h-30c-1-10 1-25-2-33-11 22-28 36-60 37" id="bA"/><g id="B"><use transform="matrix(0.05,0,0,0.05,0,0)" xlink:href="#bx"/><use transform="matrix(0.05,0,0,0.05,12.950000000000001,0)" xlink:href="#by"/><use transform="matrix(0.05,0,0,0.05,22.950000000000003,0)" xlink:href="#aF"/><use transform="matrix(0.05,0,0,0.05,28.900000000000002,0)" xlink:href="#aE"/><use transform="matrix(0.05,0,0,0.05,38.900000000000006,0)" xlink:href="#bz"/><use transform="matrix(0.05,0,0,0.05,47.900000000000006,0)" xlink:href="#bA"/></g><path d="M30-248c87 1 191-15 191 75 0 78-77 80-158 76V0H30v-248zm33 125c57 0 124 11 124-50 0-59-68-47-124-48v98" id="bB"/><path d="M59-47c-2 24 18 29 38 22v24C64 9 27 4 27-40v-127H5v-23h24l9-43h21v43h35v23H59v120" id="bC"/><path d="M177-190C167-65 218 103 67 71c-23-6-38-20-44-43l32-5c15 47 100 32 89-28v-30C133-14 115 1 83 1 29 1 15-40 15-95c0-56 16-97 71-98 29-1 48 16 59 35 1-10 0-23 2-32h30zM94-22c36 0 50-32 50-73 0-42-14-75-50-75-39 0-46 34-46 75s6 73 46 73" id="bD"/><g id="C"><use transform="matrix(0.05,0,0,0.05,0,0)" xlink:href="#bB"/><use transform="matrix(0.05,0,0,0.05,12,0)" xlink:href="#aE"/><use transform="matrix(0.05,0,0,0.05,22,0)" xlink:href="#bw"/><use transform="matrix(0.05,0,0,0.05,31,0)" xlink:href="#bC"/><use transform="matrix(0.05,0,0,0.05,36,0)" xlink:href="#bD"/><use transform="matrix(0.05,0,0,0.05,46,0)" xlink:href="#aF"/><use transform="matrix(0.05,0,0,0.05,51.95,0)" xlink:href="#by"/><use transform="matrix(0.05,0,0,0.05,61.95,0)" xlink:href="#bw"/></g><path fill="#3a414a" d="M160-131c35 5 61 23 61 61C221 17 115-2 30 0v-248c76 3 177-17 177 60 0 33-19 50-47 57zm-97-11c50-1 110 9 110-42 0-47-63-36-110-37v79zm0 115c55-2 124 14 124-45 0-56-70-42-124-44v89" id="bE"/><g id="D"><use transform="matrix(0.06172839506172839,0,0,0.06172839506172839,0,0)" xlink:href="#bE"/><use transform="matrix(0.06172839506172839,0,0,0.06172839506172839,14.814814814814813,0)" xlink:href="#bf"/><use transform="matrix(0.06172839506172839,0,0,0.06172839506172839,27.160493827160494,0)" xlink:href="#bg"/><use transform="matrix(0.06172839506172839,0,0,0.06172839506172839,38.27160493827161,0)" xlink:href="#bh"/><use transform="matrix(0.06172839506172839,0,0,0.06172839506172839,49.38271604938272,0)" xlink:href="#ak"/><use transform="matrix(0.06172839506172839,0,0,0.06172839506172839,61.7283950617284,0)" xlink:href="#ar"/><use transform="matrix(0.06172839506172839,0,0,0.06172839506172839,67.90123456790124,0)" xlink:href="#ak"/><use transform="matrix(0.06172839506172839,0,0,0.06172839506172839,80.24691358024693,0)" xlink:href="#ak"/><use transform="matrix(0.06172839506172839,0,0,0.06172839506172839,92.59259259259261,0)" xlink:href="#ao"/></g><g id="E"><use transform="matrix(0.06172839506172839,0,0,0.06172839506172839,0,0)" xlink:href="#bk"/><use transform="matrix(0.06172839506172839,0,0,0.06172839506172839,15.987654320987653,0)" xlink:href="#ai"/><use transform="matrix(0.06172839506172839,0,0,0.06172839506172839,28.333333333333332,0)" xlink:href="#bb"/><use transform="matrix(0.06172839506172839,0,0,0.06172839506172839,40.67901234567901,0)" xlink:href="#ap"/><use transform="matrix(0.06172839506172839,0,0,0.06172839506172839,51.79012345679013,0)" xlink:href="#ak"/><use transform="matrix(0.06172839506172839,0,0,0.06172839506172839,64.13580246913581,0)" xlink:href="#ao"/><use transform="matrix(0.06172839506172839,0,0,0.06172839506172839,71.4814814814815,0)" xlink:href="#an"/><use transform="matrix(0.06172839506172839,0,0,0.06172839506172839,82.59259259259261,0)" xlink:href="#bl"/><use transform="matrix(0.06172839506172839,0,0,0.06172839506172839,87.46913580246915,0)" xlink:href="#ai"/><use transform="matrix(0.06172839506172839,0,0,0.06172839506172839,99.81481481481484,0)" xlink:href="#bb"/></g><g id="F"><use transform="matrix(0.06172839506172839,0,0,0.06172839506172839,0,0)" xlink:href="#aI"/><use transform="matrix(0.06172839506172839,0,0,0.06172839506172839,12.345679012345679,0)" xlink:href="#bb"/><use transform="matrix(0.06172839506172839,0,0,0.06172839506172839,24.691358024691358,0)" xlink:href="#aj"/></g><g id="G"><use transform="matrix(0.06172839506172839,0,0,0.06172839506172839,0,0)" xlink:href="#bg"/><use transform="matrix(0.06172839506172839,0,0,0.06172839506172839,11.11111111111111,0)" xlink:href="#ao"/><use transform="matrix(0.06172839506172839,0,0,0.06172839506172839,18.45679012345679,0)" xlink:href="#ai"/><use transform="matrix(0.06172839506172839,0,0,0.06172839506172839,30.80246913580247,0)" xlink:href="#at"/><use transform="matrix(0.06172839506172839,0,0,0.06172839506172839,43.148148148148145,0)" xlink:href="#at"/><use transform="matrix(0.06172839506172839,0,0,0.06172839506172839,55.49382716049382,0)" xlink:href="#bl"/><use transform="matrix(0.06172839506172839,0,0,0.06172839506172839,60.37037037037037,0)" xlink:href="#bb"/><use transform="matrix(0.06172839506172839,0,0,0.06172839506172839,72.71604938271605,0)" xlink:href="#bn"/></g><g id="H"><use transform="matrix(0.06172839506172839,0,0,0.06172839506172839,0,0)" xlink:href="#bf"/><use transform="matrix(0.06172839506172839,0,0,0.06172839506172839,12.345679012345679,0)" xlink:href="#ar"/><use transform="matrix(0.06172839506172839,0,0,0.06172839506172839,18.51851851851852,0)" xlink:href="#bl"/><use transform="matrix(0.06172839506172839,0,0,0.06172839506172839,23.395061728395063,0)" xlink:href="#bp"/></g><path fill="#ced4db" d="M63-220v92h138v28H63V0H30v-248h175v28H63" id="bF"/><path fill="#ced4db" d="M59-47c-2 24 18 29 38 22v24C64 9 27 4 27-40v-127H5v-23h24l9-43h21v43h35v23H59v120" id="bG"/><g id="I"><use transform="matrix(0.06172839506172839,0,0,0.06172839506172839,0,0)" xlink:href="#bF"/><use transform="matrix(0.06172839506172839,0,0,0.06172839506172839,13.518518518518517,0)" xlink:href="#aN"/><use transform="matrix(0.06172839506172839,0,0,0.06172839506172839,20.864197530864196,0)" xlink:href="#aO"/><use transform="matrix(0.06172839506172839,0,0,0.06172839506172839,33.20987654320987,0)" xlink:href="#aX"/><use transform="matrix(0.06172839506172839,0,0,0.06172839506172839,45.55555555555555,0)" xlink:href="#bG"/><use transform="matrix(0.06172839506172839,0,0,0.06172839506172839,51.72839506172839,0)" xlink:href="#aM"/><use transform="matrix(0.06172839506172839,0,0,0.06172839506172839,64.07407407407408,0)" xlink:href="#aX"/><use transform="matrix(0.06172839506172839,0,0,0.06172839506172839,76.41975308641976,0)" xlink:href="#aY"/></g><path fill="#3a414a" d="M240 0l2-218c-23 76-54 145-80 218h-23L58-218 59 0H30v-248h44l77 211c21-75 51-140 76-211h43V0h-30" id="bH"/><g id="J"><use transform="matrix(0.10493827160493824,0,0,0.10493827160493824,0,0)" xlink:href="#bH"/><use transform="matrix(0.10493827160493824,0,0,0.10493827160493824,31.376543209876534,0)" xlink:href="#aI"/><use transform="matrix(0.10493827160493824,0,0,0.10493827160493824,52.36419753086418,0)" xlink:href="#at"/><use transform="matrix(0.10493827160493824,0,0,0.10493827160493824,73.35185185185183,0)" xlink:href="#be"/><use transform="matrix(0.10493827160493824,0,0,0.10493827160493824,94.33950617283948,0)" xlink:href="#ai"/><use transform="matrix(0.10493827160493824,0,0,0.10493827160493824,115.32716049382712,0)" xlink:href="#aq"/></g><g id="K"><use transform="matrix(0.10493827160493824,0,0,0.10493827160493824,0,0)" xlink:href="#bq"/><use transform="matrix(0.10493827160493824,0,0,0.10493827160493824,20.987654320987648,0)" xlink:href="#bl"/><use transform="matrix(0.10493827160493824,0,0,0.10493827160493824,29.277777777777775,0)" xlink:href="#be"/><use transform="matrix(0.10493827160493824,0,0,0.10493827160493824,50.265432098765416,0)" xlink:href="#ao"/><use transform="matrix(0.10493827160493824,0,0,0.10493827160493824,62.75308641975307,0)" xlink:href="#aI"/><use transform="matrix(0.10493827160493824,0,0,0.10493827160493824,83.74074074074072,0)" xlink:href="#bl"/><use transform="matrix(0.10493827160493824,0,0,0.10493827160493824,92.03086419753085,0)" xlink:href="#ak"/><use transform="matrix(0.10493827160493824,0,0,0.10493827160493824,113.01851851851848,0)" xlink:href="#an"/></g><path d="M141-36C126-15 110 5 73 4 37 3 15-17 15-53c-1-64 63-63 125-63 3-35-9-54-41-54-24 1-41 7-42 31l-33-3c5-37 33-52 76-52 45 0 72 20 72 64v82c-1 20 7 32 28 27v20c-31 9-61-2-59-35zM48-53c0 20 12 33 32 33 41-3 63-29 60-74-43 2-92-5-92 41" id="bI"/><g id="L"><use transform="matrix(0.06172839506172839,0,0,0.06172839506172839,0,0)" xlink:href="#bB"/><use transform="matrix(0.06172839506172839,0,0,0.06172839506172839,14.814814814814813,0)" xlink:href="#bI"/><use transform="matrix(0.06172839506172839,0,0,0.06172839506172839,27.160493827160494,0)" xlink:href="#bD"/><use transform="matrix(0.06172839506172839,0,0,0.06172839506172839,39.50617283950617,0)" xlink:href="#by"/><use transform="matrix(0.06172839506172839,0,0,0.06172839506172839,51.85185185185185,0)" xlink:href="#bw"/></g><g id="M"><use transform="matrix(0.06172839506172839,0,0,0.06172839506172839,0,0)" xlink:href="#bq"/><use transform="matrix(0.06172839506172839,0,0,0.06172839506172839,12.345679012345679,0)" xlink:href="#aI"/><use transform="matrix(0.06172839506172839,0,0,0.06172839506172839,24.691358024691358,0)" xlink:href="#bb"/><use transform="matrix(0.06172839506172839,0,0,0.06172839506172839,37.03703703703704,0)" xlink:href="#aj"/><use transform="matrix(0.06172839506172839,0,0,0.06172839506172839,49.382716049382715,0)" xlink:href="#bl"/><use transform="matrix(0.06172839506172839,0,0,0.06172839506172839,54.25925925925926,0)" xlink:href="#bb"/><use transform="matrix(0.06172839506172839,0,0,0.06172839506172839,66.60493827160494,0)" xlink:href="#bn"/></g><g id="N"><use transform="matrix(0.06172839506172839,0,0,0.06172839506172839,0,0)" xlink:href="#as"/><use transform="matrix(0.06172839506172839,0,0,0.06172839506172839,14.814814814814813,0)" xlink:href="#be"/><use transform="matrix(0.06172839506172839,0,0,0.06172839506172839,27.160493827160494,0)" xlink:href="#ai"/><use transform="matrix(0.06172839506172839,0,0,0.06172839506172839,39.50617283950617,0)" xlink:href="#bf"/><use transform="matrix(0.06172839506172839,0,0,0.06172839506172839,51.85185185185185,0)" xlink:href="#ar"/></g><path fill="#3a414a" d="M179-190L93 31C79 59 56 82 12 73V49c39 6 53-20 64-50L1-190h34L92-34l54-156h33" id="bJ"/><g id="O"><use transform="matrix(0.06172839506172839,0,0,0.06172839506172839,0,0)" xlink:href="#aJ"/><use transform="matrix(0.06172839506172839,0,0,0.06172839506172839,14.814814814814813,0)" xlink:href="#ao"/><use transform="matrix(0.06172839506172839,0,0,0.06172839506172839,22.160493827160494,0)" xlink:href="#bl"/><use transform="matrix(0.06172839506172839,0,0,0.06172839506172839,27.037037037037038,0)" xlink:href="#ap"/><use transform="matrix(0.06172839506172839,0,0,0.06172839506172839,38.14814814814815,0)" xlink:href="#aI"/><use transform="matrix(0.06172839506172839,0,0,0.06172839506172839,50.49382716049383,0)" xlink:href="#bg"/><use transform="matrix(0.06172839506172839,0,0,0.06172839506172839,61.60493827160494,0)" xlink:href="#bJ"/></g><path fill="#fff" d="M212-179c-10-28-35-45-73-45-59 0-87 40-87 99 0 60 29 101 89 101 43 0 62-24 78-52l27 14C228-24 195 4 139 4 59 4 22-46 18-125c-6-104 99-153 187-111 19 9 31 26 39 46" id="bK"/><path fill="#fff" d="M100-194c62-1 85 37 85 99 1 63-27 99-86 99S16-35 15-95c0-66 28-99 85-99zM99-20c44 1 53-31 53-75 0-43-8-75-51-75s-53 32-53 75 10 74 51 75" id="bL"/><path fill="#fff" d="M210-169c-67 3-38 105-44 169h-31v-121c0-29-5-50-35-48C34-165 62-65 56 0H25l-1-190h30c1 10-1 24 2 32 10-44 99-50 107 0 11-21 27-35 58-36 85-2 47 119 55 194h-31v-121c0-29-5-49-35-48" id="bM"/><path fill="#fff" d="M115-194c55 1 70 41 70 98S169 2 115 4C84 4 66-9 55-30l1 105H24l-1-265h31l2 30c10-21 28-34 59-34zm-8 174c40 0 45-34 45-75s-6-73-45-74c-42 0-51 32-51 76 0 43 10 73 51 73" id="bN"/><path fill="#fff" d="M117-194c89-4 53 116 60 194h-32v-121c0-31-8-49-39-48C34-167 62-67 57 0H25l-1-190h30c1 10-1 24 2 32 11-22 29-35 61-36" id="bO"/><path fill="#fff" d="M100-194c63 0 86 42 84 106H49c0 40 14 67 53 68 26 1 43-12 49-29l28 8c-11 28-37 45-77 45C44 4 14-33 15-96c1-61 26-98 85-98zm52 81c6-60-76-77-97-28-3 7-6 17-6 28h103" id="bP"/><path fill="#fff" d="M59-47c-2 24 18 29 38 22v24C64 9 27 4 27-40v-127H5v-23h24l9-43h21v43h35v23H59v120" id="bQ"/><path fill="#fff" d="M135-143c-3-34-86-38-87 0 15 53 115 12 119 90S17 21 10-45l28-5c4 36 97 45 98 0-10-56-113-15-118-90-4-57 82-63 122-42 12 7 21 19 24 35" id="bR"/><g id="P"><use transform="matrix(0.06172839506172839,0,0,0.06172839506172839,0,0)" xlink:href="#bK"/><use transform="matrix(0.06172839506172839,0,0,0.06172839506172839,15.987654320987653,0)" xlink:href="#bL"/><use transform="matrix(0.06172839506172839,0,0,0.06172839506172839,28.333333333333332,0)" xlink:href="#bM"/><use transform="matrix(0.06172839506172839,0,0,0.06172839506172839,46.79012345679012,0)" xlink:href="#bN"/><use transform="matrix(0.06172839506172839,0,0,0.06172839506172839,59.1358024691358,0)" xlink:href="#bL"/><use transform="matrix(0.06172839506172839,0,0,0.06172839506172839,71.48148148148148,0)" xlink:href="#bO"/><use transform="matrix(0.06172839506172839,0,0,0.06172839506172839,83.82716049382717,0)" xlink:href="#bP"/><use transform="matrix(0.06172839506172839,0,0,0.06172839506172839,96.17283950617285,0)" xlink:href="#bO"/><use transform="matrix(0.06172839506172839,0,0,0.06172839506172839,108.51851851851853,0)" xlink:href="#bQ"/><use transform="matrix(0.06172839506172839,0,0,0.06172839506172839,114.69135802469137,0)" xlink:href="#bR"/></g><path fill="#3a414a" d="M30 0v-248h187v28H63v79h144v27H63v87h162V0H30" id="bS"/><g id="Q"><use transform="matrix(0.06172839506172839,0,0,0.06172839506172839,0,0)" xlink:href="#bS"/><use transform="matrix(0.06172839506172839,0,0,0.06172839506172839,14.814814814814813,0)" xlink:href="#aj"/><use transform="matrix(0.06172839506172839,0,0,0.06172839506172839,27.160493827160494,0)" xlink:href="#bl"/><use transform="matrix(0.06172839506172839,0,0,0.06172839506172839,32.03703703703704,0)" xlink:href="#ar"/><use transform="matrix(0.06172839506172839,0,0,0.06172839506172839,38.20987654320988,0)" xlink:href="#ai"/><use transform="matrix(0.06172839506172839,0,0,0.06172839506172839,50.55555555555556,0)" xlink:href="#ao"/></g><g id="R"><use transform="matrix(0.06172839506172839,0,0,0.06172839506172839,0,0)" xlink:href="#as"/><use transform="matrix(0.06172839506172839,0,0,0.06172839506172839,14.814814814814813,0)" xlink:href="#aq"/><use transform="matrix(0.06172839506172839,0,0,0.06172839506172839,25.925925925925924,0)" xlink:href="#bl"/><use transform="matrix(0.06172839506172839,0,0,0.06172839506172839,30.80246913580247,0)" xlink:href="#ai"/><use transform="matrix(0.06172839506172839,0,0,0.06172839506172839,43.148148148148145,0)" xlink:href="#an"/></g><path fill="#3a414a" d="M145-31C134-9 116 4 85 4 32 4 16-35 15-94c0-59 17-99 70-100 32-1 48 14 60 33 0-11-1-24 2-32h30l-1 268h-32zM93-21c41 0 51-33 51-76s-8-73-50-73c-40 0-46 35-46 75s5 74 45 74" id="bT"/><g id="S"><use transform="matrix(0.06172839506172839,0,0,0.06172839506172839,0,0)" xlink:href="#aJ"/><use transform="matrix(0.06172839506172839,0,0,0.06172839506172839,14.814814814814813,0)" xlink:href="#ai"/><use transform="matrix(0.06172839506172839,0,0,0.06172839506172839,27.160493827160494,0)" xlink:href="#an"/><use transform="matrix(0.06172839506172839,0,0,0.06172839506172839,38.27160493827161,0)" xlink:href="#ar"/><use transform="matrix(0.06172839506172839,0,0,0.06172839506172839,44.44444444444445,0)" xlink:href="#bn"/><use transform="matrix(0.06172839506172839,0,0,0.06172839506172839,56.79012345679013,0)" xlink:href="#ao"/><use transform="matrix(0.06172839506172839,0,0,0.06172839506172839,64.13580246913581,0)" xlink:href="#ak"/><use transform="matrix(0.06172839506172839,0,0,0.06172839506172839,76.4814814814815,0)" xlink:href="#an"/><use transform="matrix(0.06172839506172839,0,0,0.06172839506172839,87.59259259259261,0)" xlink:href="#bc"/><use transform="matrix(0.06172839506172839,0,0,0.06172839506172839,102.40740740740742,0)" xlink:href="#bT"/><use transform="matrix(0.06172839506172839,0,0,0.06172839506172839,114.7530864197531,0)" xlink:href="#bp"/></g><g id="T"><use transform="matrix(0.06172839506172839,0,0,0.06172839506172839,0,0)" xlink:href="#bc"/><use transform="matrix(0.06172839506172839,0,0,0.06172839506172839,14.814814814814813,0)" xlink:href="#bd"/></g><g id="U"><use transform="matrix(0.06172839506172839,0,0,0.06172839506172839,0,0)" xlink:href="#bk"/><use transform="matrix(0.06172839506172839,0,0,0.06172839506172839,15.987654320987653,0)" xlink:href="#ao"/><use transform="matrix(0.06172839506172839,0,0,0.06172839506172839,23.333333333333332,0)" xlink:href="#ak"/><use transform="matrix(0.06172839506172839,0,0,0.06172839506172839,35.67901234567901,0)" xlink:href="#aj"/><use transform="matrix(0.06172839506172839,0,0,0.06172839506172839,48.02469135802469,0)" xlink:href="#ak"/><use transform="matrix(0.06172839506172839,0,0,0.06172839506172839,60.37037037037037,0)" xlink:href="#bb"/><use transform="matrix(0.06172839506172839,0,0,0.06172839506172839,72.71604938271605,0)" xlink:href="#ar"/><use transform="matrix(0.06172839506172839,0,0,0.06172839506172839,78.88888888888889,0)" xlink:href="#bl"/><use transform="matrix(0.06172839506172839,0,0,0.06172839506172839,83.76543209876543,0)" xlink:href="#aI"/><use transform="matrix(0.06172839506172839,0,0,0.06172839506172839,96.11111111111111,0)" xlink:href="#bp"/></g><g id="V"><use transform="matrix(0.06172839506172839,0,0,0.06172839506172839,0,0)" xlink:href="#aJ"/><use transform="matrix(0.06172839506172839,0,0,0.06172839506172839,14.814814814814813,0)" xlink:href="#ao"/><use transform="matrix(0.06172839506172839,0,0,0.06172839506172839,22.160493827160494,0)" xlink:href="#ai"/><use transform="matrix(0.06172839506172839,0,0,0.06172839506172839,34.50617283950617,0)" xlink:href="#ap"/><use transform="matrix(0.06172839506172839,0,0,0.06172839506172839,45.61728395061728,0)" xlink:href="#bl"/><use transform="matrix(0.06172839506172839,0,0,0.06172839506172839,50.49382716049382,0)" xlink:href="#aj"/><use transform="matrix(0.06172839506172839,0,0,0.06172839506172839,62.8395061728395,0)" xlink:href="#ak"/><use transform="matrix(0.06172839506172839,0,0,0.06172839506172839,75.18518518518518,0)" xlink:href="#ao"/></g><path fill="#3a414a" d="M127-220V0H93v-220H8v-28h204v28h-85" id="bU"/><g id="W"><use transform="matrix(0.06172839506172839,0,0,0.06172839506172839,0,0)" xlink:href="#br"/><use transform="matrix(0.06172839506172839,0,0,0.06172839506172839,15.987654320987653,0)" xlink:href="#bU"/><use transform="matrix(0.06172839506172839,0,0,0.06172839506172839,29.50617283950617,0)" xlink:href="#bU"/><use transform="matrix(0.06172839506172839,0,0,0.06172839506172839,43.02469135802469,0)" xlink:href="#aJ"/></g><g id="X"><use transform="matrix(0.06172839506172839,0,0,0.06172839506172839,0,0)" xlink:href="#bi"/><use transform="matrix(0.06172839506172839,0,0,0.06172839506172839,15.987654320987653,0)" xlink:href="#ak"/><use transform="matrix(0.06172839506172839,0,0,0.06172839506172839,28.333333333333332,0)" xlink:href="#bT"/><use transform="matrix(0.06172839506172839,0,0,0.06172839506172839,40.67901234567901,0)" xlink:href="#bf"/><use transform="matrix(0.06172839506172839,0,0,0.06172839506172839,53.02469135802469,0)" xlink:href="#ak"/><use transform="matrix(0.06172839506172839,0,0,0.06172839506172839,65.37037037037037,0)" xlink:href="#an"/><use transform="matrix(0.06172839506172839,0,0,0.06172839506172839,76.48148148148148,0)" xlink:href="#ar"/></g><path fill="#3a414a" d="M232-93c-1 65-40 97-104 97C67 4 28-28 28-90v-158h33c8 89-33 224 67 224 102 0 64-133 71-224h33v155" id="bV"/><g id="Y"><use transform="matrix(0.06172839506172839,0,0,0.06172839506172839,0,0)" xlink:href="#bV"/><use transform="matrix(0.06172839506172839,0,0,0.06172839506172839,15.987654320987653,0)" xlink:href="#at"/><use transform="matrix(0.06172839506172839,0,0,0.06172839506172839,28.333333333333332,0)" xlink:href="#bp"/><use transform="matrix(0.06172839506172839,0,0,0.06172839506172839,33.20987654320987,0)" xlink:href="#ai"/><use transform="matrix(0.06172839506172839,0,0,0.06172839506172839,45.55555555555555,0)" xlink:href="#aI"/><use transform="matrix(0.06172839506172839,0,0,0.06172839506172839,57.90123456790123,0)" xlink:href="#aj"/></g><g id="Z"><use transform="matrix(0.06172839506172839,0,0,0.06172839506172839,0,0)" xlink:href="#at"/><use transform="matrix(0.06172839506172839,0,0,0.06172839506172839,12.345679012345679,0)" xlink:href="#bl"/><use transform="matrix(0.06172839506172839,0,0,0.06172839506172839,17.22222222222222,0)" xlink:href="#at"/><use transform="matrix(0.06172839506172839,0,0,0.06172839506172839,29.5679012345679,0)" xlink:href="#ak"/><use transform="matrix(0.06172839506172839,0,0,0.06172839506172839,41.913580246913575,0)" xlink:href="#bp"/><use transform="matrix(0.06172839506172839,0,0,0.06172839506172839,46.79012345679012,0)" xlink:href="#bl"/><use transform="matrix(0.06172839506172839,0,0,0.06172839506172839,51.666666666666664,0)" xlink:href="#bb"/><use transform="matrix(0.06172839506172839,0,0,0.06172839506172839,64.01234567901234,0)" xlink:href="#ak"/></g><path fill="#3a414a" d="M16-82v-28h88v28H16" id="bW"/><path fill="#3a414a" d="M206 0h-36l-40-164L89 0H53L-1-190h32L70-26l43-164h34l41 164 42-164h31" id="bX"/><g id="aa"><use transform="matrix(0.06172839506172839,0,0,0.06172839506172839,0,0)" xlink:href="#bc"/><use transform="matrix(0.06172839506172839,0,0,0.06172839506172839,14.814814814814813,0)" xlink:href="#at"/><use transform="matrix(0.06172839506172839,0,0,0.06172839506172839,27.160493827160494,0)" xlink:href="#bp"/><use transform="matrix(0.06172839506172839,0,0,0.06172839506172839,32.03703703703704,0)" xlink:href="#bl"/><use transform="matrix(0.06172839506172839,0,0,0.06172839506172839,36.91358024691358,0)" xlink:href="#ar"/><use transform="matrix(0.06172839506172839,0,0,0.06172839506172839,43.086419753086425,0)" xlink:href="#bW"/><use transform="matrix(0.06172839506172839,0,0,0.06172839506172839,50.4320987654321,0)" xlink:href="#ap"/><use transform="matrix(0.06172839506172839,0,0,0.06172839506172839,61.543209876543216,0)" xlink:href="#bl"/><use transform="matrix(0.06172839506172839,0,0,0.06172839506172839,66.41975308641976,0)" xlink:href="#ak"/><use transform="matrix(0.06172839506172839,0,0,0.06172839506172839,78.76543209876544,0)" xlink:href="#bX"/></g><g id="ab"><use transform="matrix(0.06172839506172839,0,0,0.06172839506172839,0,0)" xlink:href="#bV"/><use transform="matrix(0.06172839506172839,0,0,0.06172839506172839,15.987654320987653,0)" xlink:href="#at"/><use transform="matrix(0.06172839506172839,0,0,0.06172839506172839,28.333333333333332,0)" xlink:href="#bp"/><use transform="matrix(0.06172839506172839,0,0,0.06172839506172839,33.20987654320987,0)" xlink:href="#ai"/><use transform="matrix(0.06172839506172839,0,0,0.06172839506172839,45.55555555555555,0)" xlink:href="#aI"/><use transform="matrix(0.06172839506172839,0,0,0.06172839506172839,57.90123456790123,0)" xlink:href="#aj"/></g><g id="ac"><use transform="matrix(0.06172839506172839,0,0,0.06172839506172839,0,0)" xlink:href="#aJ"/><use transform="matrix(0.06172839506172839,0,0,0.06172839506172839,14.814814814814813,0)" xlink:href="#bs"/><use transform="matrix(0.06172839506172839,0,0,0.06172839506172839,30.80246913580247,0)" xlink:href="#aH"/><use transform="matrix(0.06172839506172839,0,0,0.06172839506172839,44.32098765432099,0)" xlink:href="#bc"/><use transform="matrix(0.06172839506172839,0,0,0.06172839506172839,59.1358024691358,0)" xlink:href="#ak"/><use transform="matrix(0.06172839506172839,0,0,0.06172839506172839,71.48148148148148,0)" xlink:href="#bp"/><use transform="matrix(0.06172839506172839,0,0,0.06172839506172839,76.35802469135803,0)" xlink:href="#ak"/><use transform="matrix(0.06172839506172839,0,0,0.06172839506172839,88.70370370370371,0)" xlink:href="#bg"/><use transform="matrix(0.06172839506172839,0,0,0.06172839506172839,99.81481481481482,0)" xlink:href="#ar"/><use transform="matrix(0.06172839506172839,0,0,0.06172839506172839,105.98765432098766,0)" xlink:href="#ai"/><use transform="matrix(0.06172839506172839,0,0,0.06172839506172839,118.33333333333334,0)" xlink:href="#ao"/></g><g id="ad"><use transform="matrix(0.06172839506172839,0,0,0.06172839506172839,0,0)" xlink:href="#bk"/><use transform="matrix(0.06172839506172839,0,0,0.06172839506172839,15.987654320987653,0)" xlink:href="#ai"/><use transform="matrix(0.06172839506172839,0,0,0.06172839506172839,28.333333333333332,0)" xlink:href="#bb"/><use transform="matrix(0.06172839506172839,0,0,0.06172839506172839,40.67901234567901,0)" xlink:href="#ap"/><use transform="matrix(0.06172839506172839,0,0,0.06172839506172839,51.79012345679013,0)" xlink:href="#ak"/><use transform="matrix(0.06172839506172839,0,0,0.06172839506172839,64.13580246913581,0)" xlink:href="#ao"/><use transform="matrix(0.06172839506172839,0,0,0.06172839506172839,71.4814814814815,0)" xlink:href="#an"/><use transform="matrix(0.06172839506172839,0,0,0.06172839506172839,82.59259259259261,0)" xlink:href="#bl"/><use transform="matrix(0.06172839506172839,0,0,0.06172839506172839,87.46913580246915,0)" xlink:href="#ai"/><use transform="matrix(0.06172839506172839,0,0,0.06172839506172839,99.81481481481484,0)" xlink:href="#bb"/></g><g id="ae"><use transform="matrix(0.06172839506172839,0,0,0.06172839506172839,0,0)" xlink:href="#aJ"/><use transform="matrix(0.06172839506172839,0,0,0.06172839506172839,14.814814814814813,0)" xlink:href="#ao"/><use transform="matrix(0.06172839506172839,0,0,0.06172839506172839,22.160493827160494,0)" xlink:href="#ai"/><use transform="matrix(0.06172839506172839,0,0,0.06172839506172839,34.50617283950617,0)" xlink:href="#am"/><use transform="matrix(0.06172839506172839,0,0,0.06172839506172839,39.382716049382715,0)" xlink:href="#ak"/><use transform="matrix(0.06172839506172839,0,0,0.06172839506172839,51.72839506172839,0)" xlink:href="#bg"/><use transform="matrix(0.06172839506172839,0,0,0.06172839506172839,62.839506172839506,0)" xlink:href="#ar"/><use transform="matrix(0.06172839506172839,0,0,0.06172839506172839,69.01234567901234,0)" xlink:href="#as"/><use transform="matrix(0.06172839506172839,0,0,0.06172839506172839,83.82716049382715,0)" xlink:href="#aJ"/><use transform="matrix(0.06172839506172839,0,0,0.06172839506172839,98.64197530864196,0)" xlink:href="#aK"/></g><path fill="#3a414a" d="M140-251c81 0 123 46 123 126C263-46 219 4 140 4 59 4 17-45 17-125s42-126 123-126zm0 227c63 0 89-41 89-101s-29-99-89-99c-61 0-89 39-89 99S79-25 140-24" id="bY"/><g id="af"><use transform="matrix(0.06172839506172839,0,0,0.06172839506172839,0,0)" xlink:href="#bY"/><use transform="matrix(0.06172839506172839,0,0,0.06172839506172839,17.28395061728395,0)" xlink:href="#ap"/><use transform="matrix(0.06172839506172839,0,0,0.06172839506172839,28.39506172839506,0)" xlink:href="#ak"/><use transform="matrix(0.06172839506172839,0,0,0.06172839506172839,40.74074074074074,0)" xlink:href="#ao"/><use transform="matrix(0.06172839506172839,0,0,0.06172839506172839,48.08641975308642,0)" xlink:href="#bp"/><use transform="matrix(0.06172839506172839,0,0,0.06172839506172839,52.96296296296296,0)" xlink:href="#aI"/><use transform="matrix(0.06172839506172839,0,0,0.06172839506172839,65.30864197530865,0)" xlink:href="#bJ"/><use transform="matrix(0.06172839506172839,0,0,0.06172839506172839,76.41975308641976,0)" xlink:href="#bW"/><use transform="matrix(0.06172839506172839,0,0,0.06172839506172839,83.76543209876544,0)" xlink:href="#ap"/><use transform="matrix(0.06172839506172839,0,0,0.06172839506172839,94.87654320987656,0)" xlink:href="#bl"/><use transform="matrix(0.06172839506172839,0,0,0.06172839506172839,99.7530864197531,0)" xlink:href="#ak"/><use transform="matrix(0.06172839506172839,0,0,0.06172839506172839,112.09876543209879,0)" xlink:href="#bX"/></g><g id="ag"><use transform="matrix(0.06172839506172839,0,0,0.06172839506172839,0,0)" xlink:href="#bk"/><use transform="matrix(0.06172839506172839,0,0,0.06172839506172839,15.987654320987653,0)" xlink:href="#ao"/><use transform="matrix(0.06172839506172839,0,0,0.06172839506172839,23.333333333333332,0)" xlink:href="#ai"/><use transform="matrix(0.06172839506172839,0,0,0.06172839506172839,35.67901234567901,0)" xlink:href="#at"/></g></defs></g></svg>